<svg width="15" height="15" viewBox="0 0 15 15" fill="none" xmlns="http://www.w3.org/2000/svg">
<path d="M14 7.1389C14.0025 8.09214 13.7798 9.03248 13.35 9.88334C12.8404 10.9029 12.057 11.7605 11.0876 12.36C10.1181 12.9596 9.00094 13.2773 7.8611 13.2778C6.90786 13.2803 5.96752 13.0576 5.11666 12.6278L1 14L2.37222 9.88334C1.94245 9.03248 1.71974 8.09214 1.72222 7.1389C1.72266 5.99906 2.04044 4.88185 2.63996 3.91241C3.23948 2.94298 4.09707 2.1596 5.11666 1.65002C5.96752 1.22025 6.90786 0.997536 7.8611 1.00002H8.22221C9.72757 1.08307 11.1494 1.71846 12.2155 2.78453C13.2815 3.8506 13.9169 5.27243 14 6.77779V7.1389Z" stroke="white" stroke-linecap="round" stroke-linejoin="round"/>
</svg>
