<svg xmlns="http://www.w3.org/2000/svg" version="1.1" xmlns:xlink="http://www.w3.org/1999/xlink" width="512" height="512" x="0" y="0" viewBox="0 0 24 24" style="enable-background:new 0 0 512 512" xml:space="preserve" class="">
  <g>
    <path fill="#0053a0" fill-rule="evenodd" d="M6 0a3 3 0 0 0-3 3v18a3 3 0 0 0 3 3h12a3 3 0 0 0 3-3V7.557a1.5 1.5 0 0 0-.361-.976L15.449.524A1.5 1.5 0 0 0 14.31 0zm7 5H6v1h7zM6 8h11v1H6zm0 3h10v1H6zm0 3h12v1H6zm9 3H6v1h9z" clip-rule="evenodd" opacity="1" data-original="#0053a0" class=""></path>
  </g>
</svg>