<svg xmlns="http://www.w3.org/2000/svg" version="1.1" xmlns:xlink="http://www.w3.org/1999/xlink" width="512" height="512" x="0" y="0" viewBox="0 0 480 480" style="enable-background:new 0 0 512 512" xml:space="preserve" class="">
  <g>
    <path d="M407.5 282.5h-335C49 282.5 30 263.5 30 240s19-42.5 42.5-42.5h335c23.5 0 42.5 19 42.5 42.5s-19 42.5-42.5 42.5zM407.5 419.5h-335C49 419.5 30 400.5 30 377s19-42.5 42.5-42.5h335c23.5 0 42.5 19 42.5 42.5s-19 42.5-42.5 42.5zM407.8 145.5H72.2c-23.3 0-42.2-18.9-42.2-42.2v-.5c0-23.3 18.9-42.2 42.2-42.2h335.5c23.3 0 42.2 18.9 42.2 42.2v.5c.1 23.3-18.8 42.2-42.1 42.2z" fill="#000000" opacity="1" data-original="#000000" class=""></path>
  </g>
</svg>