<svg xmlns="http://www.w3.org/2000/svg" version="1.1" xmlns:xlink="http://www.w3.org/1999/xlink" width="512" height="512" x="0" y="0" viewBox="0 0 64 64" style="enable-background:new 0 0 512 512" xml:space="preserve" class="">
  <g>
    <g data-name="Layer 45">
      <circle cx="32" cy="32" r="29" fill="#939598" opacity="1" data-original="#939598" class=""></circle>
      <circle cx="32" cy="32" r="25" fill="#808285" opacity="1" data-original="#808285" class=""></circle>
      <path fill="#808285" d="M32.145 3a29.023 29.023 0 0 1 .69 4.017A25 25 0 1 1 7.924 38.729 29.35 29.35 0 0 1 4 39h-.145a29 29 0 1 0 28.29-36z" opacity="1" data-original="#808285" class=""></path>
      <path fill="#6d6e71" d="M32 57a25 25 0 0 0 .835-49.979A29.013 29.013 0 0 1 33 10 29 29 0 0 1 7.924 38.729 25 25 0 0 0 32 57z" opacity="1" data-original="#6d6e71" class=""></path>
      <g fill="#f1f2f2">
        <path d="M26.343 27.343a8 8 0 0 0 11.314 0L44.5 20.5a2.121 2.121 0 0 0-3-3l-6.672 6.672a4 4 0 0 1-5.656 0L22.5 17.5a2.121 2.121 0 0 0-3 3zM22.5 46.5l6.672-6.672a4 4 0 0 1 5.656 0L41.5 46.5a2.121 2.121 0 0 0 3-3l-6.843-6.843a8 8 0 0 0-11.314 0L19.5 43.5a2.121 2.121 0 0 0 3 3z" fill="#f1f2f2" opacity="1" data-original="#f1f2f2" class=""></path>
      </g>
    </g>
  </g>
</svg>