<svg width="28" height="48" viewBox="0 0 28 48" fill="none" xmlns="http://www.w3.org/2000/svg">
<path fill-rule="evenodd" clip-rule="evenodd" d="M3.81172 45.8108C3.22614 45.6128 2.68933 45.2925 2.23687 44.8714C1.78441 44.4502 1.42663 43.9376 1.18723 43.3677C0.94784 42.7978 0.832304 42.1835 0.848278 41.5655C0.864254 40.9476 1.01138 40.34 1.2799 39.7832L4.4532 33.2027C5.03559 31.9962 6.14113 31.1248 7.45027 30.8389L12.9632 29.6334C13.2487 29.5709 13.5132 29.4356 13.7309 29.2406C13.9487 29.0457 14.1123 28.7978 14.206 28.521L16.9828 20.2899C17.0762 20.0125 17.0962 19.7156 17.0408 19.4282C16.9854 19.1408 16.8566 18.8726 16.6667 18.6497L13.0117 14.3533C12.5832 13.8497 12.2747 13.2552 12.1097 12.6149C11.9447 11.9745 11.9274 11.305 12.0591 10.657L13.5183 3.50008C14.043 0.927126 16.7028 -0.602804 19.1863 0.236877L22.6502 1.40545C25.1292 2.24176 27.0849 4.35857 27.4161 7.07102C28.2651 14.0128 27.5404 21.0566 25.2956 27.68C23.0699 34.3091 19.3804 40.3521 14.5007 45.3609C12.5952 47.315 9.75469 47.8157 7.27566 46.9794L3.81172 45.8108Z" fill="black"/>
</svg>
