<svg xmlns="http://www.w3.org/2000/svg" version="1.1" xmlns:xlink="http://www.w3.org/1999/xlink" width="512" height="512" x="0" y="0" viewBox="0 0 64 64" style="enable-background:new 0 0 512 512" xml:space="preserve" class="">
  <g>
    <path d="M31.5 54.9c.2 0 .4.1.5.1s.4 0 .5-.1C33.3 54.7 52 49.4 52 37V14c0-.8-.5-1.5-1.2-1.8-12-5.3-25.7-5.3-37.6 0-.7.3-1.2 1-1.2 1.8v23c0 12.4 18.7 17.7 19.5 17.9zm-8.9-26.4c.8-.8 2-.8 2.8 0l4.7 4.7 8.5-8.5c.8-.8 2-.8 2.8 0s.8 2 0 2.8l-9.9 9.9c-.4.4-.9.6-1.4.6s-1-.2-1.4-.6l-6.1-6.1c-.8-.8-.8-2.1 0-2.8z" fill="#000000" opacity="1" data-original="#000000" class=""></path>
  </g>
</svg>