<svg width="23" height="20" viewBox="0 0 23 20" fill="none" xmlns="http://www.w3.org/2000/svg">
<g clip-path="url(#clip0_1_240)">
<path d="M20.4694 0.00200357C20.2019 0.0215776 19.9392 0.0846958 19.6919 0.188896H19.6885C19.451 0.283599 18.3218 0.761305 16.6049 1.48541L10.4527 4.091C6.03818 5.95992 1.69864 7.80035 1.69864 7.80035L1.75032 7.78024C1.75032 7.78024 1.45112 7.87913 1.13859 8.09452C0.945513 8.21808 0.77937 8.37972 0.650214 8.56972C0.496868 8.79599 0.373524 9.14212 0.419361 9.49999C0.494367 10.1051 0.884401 10.468 1.16443 10.6683C1.44778 10.8711 1.71781 10.9658 1.71781 10.9658H1.72447L5.794 12.3444C5.97651 12.9336 7.0341 16.4301 7.2883 17.2355C7.4383 17.7165 7.58415 18.0175 7.76666 18.2471C7.85501 18.3643 7.95835 18.4625 8.08252 18.5412C8.14709 18.5789 8.21592 18.6088 8.28754 18.6301L8.24587 18.62C8.25838 18.6233 8.26838 18.6333 8.27754 18.6367C8.31088 18.646 8.33339 18.6493 8.37589 18.656C9.02011 18.8521 9.53765 18.4498 9.53765 18.4498L9.56682 18.4264L11.9695 16.2265L15.9966 19.3332L16.0882 19.3726C16.9275 19.743 17.7775 19.5369 18.2267 19.1732C18.6793 18.8069 18.8551 18.3384 18.8551 18.3384L18.8843 18.263L21.9962 2.23129C22.0845 1.83573 22.1071 1.46529 22.0095 1.10576C21.909 0.741883 21.6768 0.428928 21.3587 0.228285C21.0915 0.0649559 20.7817 -0.0138793 20.4694 0.00200357ZM20.3852 1.72007C20.3819 1.77286 20.392 1.76701 20.3686 1.86841V1.87763L17.2858 17.7425C17.2724 17.7652 17.25 17.8146 17.1883 17.8641C17.1233 17.916 17.0716 17.9487 16.8008 17.8406L11.8754 14.0432L8.9001 16.7703L9.52515 12.7559L17.5725 5.2132C17.9042 4.90311 17.7933 4.83774 17.7933 4.83774C17.8167 4.45724 17.2924 4.72626 17.2924 4.72626L7.14495 11.0479L7.14161 11.0312L2.27786 9.38433V9.38097L2.26536 9.37846C2.27388 9.37561 2.28223 9.37226 2.29035 9.3684L2.31703 9.355L2.34286 9.34578C2.34286 9.34578 6.68574 7.50535 11.1003 5.63643C13.3105 4.70029 15.5374 3.75744 17.25 3.02999C18.2656 2.60006 19.2824 2.17264 20.3003 1.74773C20.3686 1.7209 20.3361 1.72007 20.3852 1.72007Z" fill="black"/>
</g>
<defs>
<clipPath id="clip0_1_240">
<rect width="22.0535" height="19.5682" fill="white" transform="translate(0.409668)"/>
</clipPath>
</defs>
</svg>
