<svg width="15" height="14" viewBox="0 0 15 14" fill="none" xmlns="http://www.w3.org/2000/svg">
<g clip-path="url(#clip0_1_371)">
<path d="M13.0206 12.4939V11.2377C13.0206 10.5714 12.7288 9.9323 12.2096 9.4611C11.6903 8.98992 10.986 8.72522 10.2517 8.72522H4.71392C3.97957 8.72522 3.27529 8.98992 2.75603 9.4611C2.23675 9.9323 1.94504 10.5714 1.94504 11.2377V12.4939" stroke="black" stroke-linecap="round" stroke-linejoin="round"/>
<path d="M7.4828 6.21278C9.01201 6.21278 10.2517 5.08792 10.2517 3.70033C10.2517 2.31273 9.01201 1.18787 7.4828 1.18787C5.9536 1.18787 4.71393 2.31273 4.71393 3.70033C4.71393 5.08792 5.9536 6.21278 7.4828 6.21278Z" stroke="black" stroke-linecap="round" stroke-linejoin="round"/>
</g>
<defs>
<clipPath id="clip0_1_371">
<rect width="13.4184" height="13.0455" fill="white" transform="translate(0.986572 0.318115)"/>
</clipPath>
</defs>
</svg>
