<svg width="23" height="20" viewBox="0 0 23 20" fill="none" xmlns="http://www.w3.org/2000/svg">
<g clip-path="url(#clip0_1_236)">
<path d="M9.91587 0.00284775C8.14585 0.0218068 4.34046 0.279894 2.21203 2.01251C0.628804 3.40446 0.0760185 5.46243 0.0112283 8.00722C-0.0425339 10.5428 -0.107324 15.3047 5.06555 16.6011V18.5759C5.06555 18.5759 5.03316 19.3661 5.62178 19.5281C6.34689 19.7319 6.75975 19.124 7.44901 18.4708L8.73448 17.181C12.2738 17.442 14.9846 16.8402 15.2969 16.751C16.0151 16.5474 20.0603 16.0887 20.7214 11.3263C21.3996 6.40794 20.3911 3.30906 18.5708 1.90731H18.5598C18.0105 1.45842 15.8028 0.0309805 10.8705 0.0150794C10.8705 0.0150794 10.5045 -0.00632597 9.91587 0.00284775ZM9.97652 1.38564C10.479 1.38257 10.7843 1.40154 10.7843 1.40154C14.9592 1.41132 16.9518 2.52623 17.4219 2.90174C18.9549 4.06742 19.7447 6.86111 19.1664 10.9673C18.617 14.9487 15.3362 15.2007 14.729 15.3725C14.4705 15.4458 12.0829 15.9682 9.07497 15.7964C9.07497 15.7964 6.83488 18.1949 6.1346 18.8126C6.02363 18.9209 5.89404 18.9527 5.81133 18.9368C5.69278 18.9111 5.65694 18.7809 5.66383 18.6023L5.68519 15.3248C1.29807 14.2484 1.55654 10.1869 1.60341 8.06533C1.65718 5.94374 2.10588 4.20809 3.44166 3.03262C5.23993 1.5899 8.47256 1.39542 9.97652 1.38564ZM10.3074 3.50659C10.2713 3.50628 10.2354 3.51229 10.202 3.52431C10.1685 3.53634 10.138 3.55412 10.1123 3.57662C10.0866 3.59914 10.0662 3.62595 10.0523 3.65549C10.0383 3.68503 10.0311 3.71674 10.031 3.74878C10.031 3.88577 10.1564 3.99402 10.3074 3.99402C10.9908 3.98249 11.67 4.09112 12.3058 4.31365C12.9417 4.53618 13.5216 4.86821 14.0121 5.29058C15.0136 6.15352 15.5016 7.31307 15.5202 8.82919C15.5202 8.96313 15.6423 9.07443 15.7967 9.07443V9.06465C15.8694 9.0648 15.9393 9.03944 15.991 8.99407C16.0428 8.94871 16.0723 8.88702 16.0731 8.82246C16.1064 8.10883 15.976 7.39663 15.6896 6.72912C15.4032 6.06161 14.9669 5.45274 14.4071 4.93953C13.316 3.99341 11.9333 3.50659 10.3074 3.50659ZM6.67428 4.06742C6.4792 4.04212 6.28021 4.07687 6.11048 4.16588H6.09599C5.70193 4.37084 5.34692 4.6299 5.04419 4.93341C4.79262 5.1915 4.65613 5.45265 4.62029 5.70401C4.59893 5.85385 4.61341 6.00369 4.66372 6.1468L4.68164 6.15658C4.96493 6.89537 5.33506 7.60602 5.78721 8.2751C6.36965 9.21506 7.08643 10.0844 7.91978 10.8615L7.94459 10.8933L7.98388 10.919L8.00868 10.9446L8.03763 10.9667C8.9166 11.7083 9.8987 12.3472 10.9601 12.8681C12.1732 13.4539 12.9093 13.731 13.3511 13.8459V13.8521C13.4807 13.887 13.5986 13.9028 13.7171 13.9028C14.0936 13.8784 14.4501 13.7427 14.7297 13.5176C15.0702 13.2488 15.3588 12.9326 15.5844 12.5812V12.5751C15.7959 12.2216 15.7242 11.8871 15.4189 11.6608C14.8073 11.1865 14.1461 10.7653 13.4442 10.4028C12.9741 10.1765 12.4964 10.3135 12.3028 10.5428L11.8899 11.0046C11.6783 11.2339 11.2937 11.2021 11.2937 11.2021L11.2827 11.2082C8.41466 10.5581 7.64959 7.98154 7.64959 7.98154C7.64959 7.98154 7.61375 7.6311 7.87911 7.45252L8.39604 7.08312C8.6435 6.90454 8.81581 6.48132 8.55045 6.06362C8.14475 5.4399 7.67103 4.85303 7.13608 4.31143C7.01914 4.18376 6.85508 4.09689 6.6729 4.06619L6.67428 4.06742ZM10.7843 4.79397C10.4183 4.79397 10.4183 5.28447 10.7878 5.28447C11.2429 5.29101 11.6921 5.37708 12.1097 5.53774C12.5273 5.6984 12.9051 5.9305 13.2215 6.22079C13.5102 6.50336 13.7321 6.83444 13.8739 7.19445C14.0157 7.55447 14.0747 7.93609 14.0473 8.31669C14.0485 8.38109 14.0782 8.44251 14.1298 8.48778C14.1815 8.53303 14.2511 8.55856 14.3237 8.55886L14.3347 8.57171C14.4078 8.57123 14.4778 8.54524 14.5295 8.49935C14.5813 8.45347 14.6106 8.39136 14.6111 8.32647C14.6359 7.35466 14.2954 6.53943 13.6275 5.88625C12.9562 5.23309 12.0195 4.86675 10.8236 4.79397H10.7843ZM11.2372 6.11254C10.8601 6.10276 10.8457 6.60304 11.2192 6.61282C12.1277 6.65441 12.5688 7.06171 12.6267 7.89958C12.628 7.96318 12.6572 8.02382 12.7083 8.06851C12.7593 8.1132 12.828 8.13841 12.8997 8.13871H12.9107C12.9475 8.13731 12.9837 8.12941 13.0171 8.11546C13.0505 8.10153 13.0804 8.08183 13.1051 8.05751C13.1298 8.03321 13.1488 8.00477 13.161 7.97388C13.1732 7.94297 13.1783 7.91024 13.1761 7.87756C13.1113 6.78528 12.4399 6.17003 11.2482 6.11315L11.2372 6.11254Z" fill="black"/>
</g>
<defs>
<clipPath id="clip0_1_236">
<rect width="22.0535" height="19.5682" fill="white"/>
</clipPath>
</defs>
</svg>
