<svg width="23" height="20" viewBox="0 0 23 20" fill="none" xmlns="http://www.w3.org/2000/svg">
<g clip-path="url(#clip0_1_238)">
<path fill-rule="evenodd" clip-rule="evenodd" d="M16.1613 11.7262C15.8874 11.6048 14.5449 11.0194 14.295 10.9378C14.045 10.8571 13.8631 10.8171 13.6802 11.0601C13.4983 11.3014 12.9754 11.8477 12.8165 12.0092C12.6566 12.1714 12.4976 12.191 12.2247 12.0703C11.9518 11.948 11.0715 11.6928 10.0285 10.8677C9.21717 10.2252 8.66859 9.43188 8.50961 9.18891C8.35065 8.94676 8.49216 8.81548 8.62907 8.69481C8.7522 8.58638 8.90198 8.41189 9.0389 8.27083C9.17581 8.12896 9.22084 8.02786 9.3118 7.86562C9.40369 7.70418 9.35775 7.56312 9.28884 7.44164C9.22084 7.32015 8.67502 6.12731 8.44713 5.64219C8.22568 5.1701 8.00055 5.23452 7.83331 5.22636C7.67342 5.21984 7.49148 5.21821 7.30954 5.21821C7.12759 5.21821 6.83171 5.27855 6.58177 5.52152C6.33092 5.76367 5.62612 6.3499 5.62612 7.54274C5.62612 8.73477 6.60382 9.88684 6.74075 10.0491C6.87765 10.2105 8.66583 12.6582 11.4051 13.7076C12.0575 13.957 12.5656 14.1062 12.9617 14.2171C13.6159 14.4022 14.2114 14.3761 14.6818 14.3133C15.2057 14.244 16.2973 13.7271 16.5252 13.1612C16.7521 12.5954 16.7521 12.1103 16.6841 12.0092C16.6161 11.9081 16.4352 11.8477 16.1613 11.7262ZM11.179 17.7622H11.1753C9.54837 17.7625 7.95126 17.3744 6.55145 16.6386L6.22065 16.4642L2.78214 17.2648L3.70012 14.2904L3.48417 13.9856C2.5746 12.7009 2.09324 11.214 2.09573 9.69687C2.09756 5.25326 6.17194 1.63805 11.1827 1.63805C13.6086 1.63805 15.8893 2.47786 17.6039 4.0009C18.4496 4.74823 19.12 5.63694 19.5761 6.61561C20.0323 7.5943 20.2652 8.64352 20.2614 9.70257C20.2596 14.1462 16.1851 17.7622 11.179 17.7622ZM18.9088 2.84394C17.8963 1.93967 16.6916 1.22267 15.3646 0.734492C14.0376 0.246318 12.6146 -0.00332352 11.1781 3.34106e-05C5.15564 3.34106e-05 0.252419 4.34987 0.250581 9.69605C0.249662 11.405 0.752298 13.0732 1.70886 14.5433L0.158691 19.5682L5.95141 18.2196C7.55384 18.9942 9.34958 19.4002 11.1744 19.4002H11.179C17.2015 19.4002 22.1046 15.0503 22.1065 9.70339C22.1109 8.42923 21.8306 7.16695 21.2817 5.98955C20.7329 4.81214 19.9263 3.74299 18.9088 2.84394Z" fill="black"/>
</g>
<defs>
<clipPath id="clip0_1_238">
<rect width="22.0535" height="19.5682" fill="white" transform="translate(0.158691)"/>
</clipPath>
</defs>
</svg>
