<svg width="470" height="293" viewBox="0 0 470 293" fill="none" xmlns="http://www.w3.org/2000/svg">
<path d="M102.45 107.76L47.9499 107.75C47.8754 107.75 47.8027 107.773 47.7418 107.816C47.6809 107.859 47.6348 107.92 47.6099 107.99L34.9499 144.44C34.9251 144.51 34.879 144.571 34.8181 144.614C34.7572 144.657 34.6845 144.68 34.6099 144.68L5.14995 144.69C5.09316 144.689 5.03752 144.674 4.98759 144.647C4.93766 144.619 4.89485 144.581 4.86266 144.534C4.83048 144.487 4.80983 144.434 4.8024 144.377C4.79498 144.321 4.80099 144.264 4.81995 144.21L57.2299 0.51001C57.2548 0.439727 57.3009 0.37889 57.3618 0.3359C57.4227 0.29291 57.4954 0.269883 57.5699 0.270005L92.7199 0.26001C92.7945 0.259888 92.8672 0.282908 92.9281 0.325898C92.989 0.368887 93.0351 0.429725 93.0599 0.500008L145.27 144.21C145.289 144.264 145.295 144.321 145.288 144.377C145.28 144.434 145.259 144.487 145.227 144.534C145.195 144.581 145.152 144.619 145.102 144.647C145.052 144.674 144.997 144.689 144.94 144.69L115.79 144.68C115.715 144.68 115.643 144.657 115.582 144.614C115.521 144.571 115.475 144.51 115.45 144.44L102.79 108C102.765 107.93 102.719 107.869 102.658 107.826C102.597 107.783 102.524 107.76 102.45 107.76ZM75.2699 23.53L54.7299 84.52C54.6233 84.8467 54.7399 85.01 55.0799 85.01H95.4399C95.8666 85.01 96.0066 84.81 95.8599 84.41C88.6666 64.4433 81.8466 44.15 75.3999 23.53C75.3533 23.3967 75.3099 23.3967 75.2699 23.53Z" fill="black"/>
<path d="M295.05 53.25H282.25C281.917 53.25 281.75 53.0833 281.75 52.75V34.26C281.75 33.9333 281.913 33.77 282.24 33.77H296.7C297.047 33.77 297.277 33.6067 297.39 33.28L306.04 8.26C306.16 7.92 306.397 7.75 306.75 7.75H323.75C324.083 7.75 324.25 7.91667 324.25 8.25V33.26C324.25 33.5933 324.42 33.76 324.76 33.76L345.01 33.77C345.074 33.77 345.135 33.7953 345.18 33.8403C345.225 33.8853 345.25 33.9463 345.25 34.01V52.75C345.25 53.0833 345.083 53.25 344.75 53.25H324.72C324.601 53.25 324.486 53.2974 324.402 53.3818C324.317 53.4662 324.27 53.5806 324.27 53.7C324.217 75.34 324.233 95.1233 324.32 113.05C324.333 115.937 325.02 118.667 326.38 121.24C330.07 128.2 339.27 127.04 345.95 125.27C346.015 125.253 346.082 125.252 346.147 125.265C346.213 125.278 346.274 125.306 346.327 125.346C346.38 125.387 346.423 125.439 346.453 125.498C346.483 125.558 346.499 125.623 346.5 125.69V142.49C346.5 142.85 346.323 143.087 345.97 143.2C338.73 145.447 330.65 146.543 321.73 146.49C304.17 146.39 295.76 135.69 295.76 118.82C295.76 96.7533 295.76 75.13 295.76 53.95C295.76 53.4833 295.523 53.25 295.05 53.25Z" fill="black"/>
<path d="M421.18 32.12C444.2 34.15 461.3 46.38 466.81 69.43C470.31 84.06 470.09 102.11 463.97 116.45C457.05 132.67 442.91 142.85 425.26 145.68C402.18 149.37 378.64 143.75 365.77 123.16C357.5 109.94 355.94 92.21 358.18 76.7C359.6 66.91 363.3 57.45 369.56 49.88C382.23 34.56 401.74 30.4 421.18 32.12ZM411.34 51.67C398.82 52.68 391.54 61.06 389.15 72.99C385.55 90.96 385.62 127.95 413.28 126.96C429.82 126.37 436.69 114.19 438.26 99.42C440.37 79.49 438.72 49.48 411.34 51.67Z" fill="black"/>
<path d="M236.53 123.52C236.47 122.493 236.223 122.447 235.79 123.38C230.96 133.86 223.25 142.23 211.83 145.24C205.11 147.013 198.197 147.193 191.09 145.78C181.183 143.807 173.92 138.463 169.3 129.75C164.75 121.16 163.92 111.29 163.95 101.3C164.03 78.6134 164.037 56.2933 163.97 34.34C163.97 34.1862 164.031 34.0387 164.14 33.9299C164.249 33.8211 164.396 33.76 164.55 33.76L192.47 33.77C192.509 33.77 192.548 33.7778 192.585 33.7928C192.621 33.8079 192.654 33.83 192.682 33.8579C192.71 33.8857 192.732 33.9188 192.747 33.9552C192.762 33.9916 192.77 34.0306 192.77 34.07C192.763 54.51 192.77 74.9867 192.79 95.5C192.8 105.77 194.52 121.1 206.65 124.33C226.15 129.52 235.63 110.36 235.69 94.28C235.763 74.92 235.773 54.9367 235.72 34.33C235.72 33.9567 235.907 33.77 236.28 33.77H264.21C264.29 33.77 264.366 33.8016 264.422 33.8579C264.478 33.9141 264.51 33.9905 264.51 34.07C264.49 64.1167 264.497 93.9767 264.53 123.65C264.54 130.47 264.83 137.21 265.3 144.06C265.327 144.473 265.133 144.68 264.72 144.68L238.23 144.7C238.103 144.7 237.982 144.651 237.89 144.564C237.799 144.476 237.745 144.356 237.74 144.23L236.53 123.52Z" fill="black"/>
<path d="M9.27002 232.35C6.57002 232.38 -1.40998 233.56 0.260023 227.9C1.88002 222.38 3.47002 216.87 10.65 217.22C12.0234 217.287 13.3667 217.303 14.68 217.27C15.04 217.257 15.2767 217.08 15.39 216.74C19.53 204.493 23.2367 194.283 26.51 186.11C27.8434 182.797 30.4634 180.153 34.37 178.18C43.6 173.51 52.59 172.51 63.47 172.08C73.0634 171.707 82.7567 171.783 92.55 172.31C102.9 172.87 120.93 174.93 125.27 186.24C129.057 196.107 132.77 206.253 136.41 216.68C136.55 217.067 136.827 217.263 137.24 217.27C142 217.33 146.75 216.47 149.24 221.31C150.31 223.4 152.18 227.58 151.63 229.89C150.81 233.36 145.56 232.36 142.84 232.35C142.4 232.35 142.263 232.553 142.43 232.96C143.617 235.92 144.217 238.663 144.23 241.19C144.29 257.397 144.293 272.877 144.24 287.63C144.22 290.97 141.54 293 138.36 293C131.96 293 125.743 292.993 119.71 292.98C115.78 292.97 113.75 290.22 113.88 286.44C113.973 283.627 113.983 280.96 113.91 278.44C113.903 278.04 113.7 277.84 113.3 277.84H38.35C38.2775 277.84 38.2077 277.869 38.1555 277.921C38.1033 277.974 38.0726 278.045 38.07 278.12C38.0034 280.8 38.0067 283.693 38.08 286.8C38.15 290.27 36.12 292.94 32.51 292.96C26.11 293.013 19.79 293.007 13.55 292.94C9.80002 292.9 7.83002 290.37 7.83002 286.93C7.84336 270.043 7.84669 255.087 7.84002 242.06C7.84002 238.9 8.47669 235.903 9.75002 233.07C9.96336 232.583 9.80336 232.343 9.27002 232.35ZM39.11 187.32C34.21 197.67 29.51 207.84 26.88 218.94C26.7867 219.313 26.9334 219.513 27.32 219.54C59.37 221.79 92.39 222.34 124.49 219.53C125.057 219.483 125.267 219.183 125.12 218.63C122.387 208.663 118.14 198.443 112.38 187.97C110.65 184.82 100.07 183.97 96.75 183.74C79.0167 182.527 62.4967 182.713 47.19 184.3C44.8767 184.54 42.6567 185.093 40.53 185.96C39.9058 186.217 39.3991 186.702 39.11 187.32ZM35.81 243.45C31.03 241.2 22.7 237.34 17.65 239.62C14.88 240.87 15.38 246.35 15.49 249.12C15.57 251.24 17.3 252.4 19.35 252.01C22.76 251.36 29.84 250.15 32.56 251.88C33.8934 252.727 35.1767 253.623 36.41 254.57C38.53 256.19 41.88 255.63 44 254.53C47.19 252.88 45.9 248.82 43.99 246.76C41.97 244.59 38.46 244.71 35.81 243.45ZM116.45 243.38C114.47 244.29 112.51 244.83 110.86 246.37C109.227 247.89 107.647 249.42 106.12 250.96C105.925 251.158 105.777 251.398 105.688 251.661C105.6 251.924 105.572 252.205 105.608 252.48C105.643 252.756 105.741 253.02 105.894 253.252C106.047 253.484 106.251 253.678 106.49 253.82C108.58 255.07 112.83 256.3 115.19 254.69C117.4 253.17 119.32 251.36 122.2 251.33C125.733 251.303 129.187 251.523 132.56 251.99C135.073 252.337 136.433 251.357 136.64 249.05C136.87 246.46 137.32 240.59 134.06 239.41C129.12 237.61 121.77 240.92 116.45 243.38Z" fill="black"/>
<path d="M260.62 188.67H246.12C245.916 188.67 245.75 188.836 245.75 189.04V268.62C245.75 268.824 245.916 268.99 246.12 268.99H260.62C260.824 268.99 260.99 268.824 260.99 268.62V189.04C260.99 188.836 260.824 188.67 260.62 188.67Z" fill="black"/>
<path d="M183.24 266.71C165.05 259.27 160.76 238.98 163.3 221.48C165.14 208.75 172.24 198.07 184.74 194.06C193.853 191.14 203.2 190.82 212.78 193.1C223.14 195.567 230.183 202.02 233.91 212.46C233.925 212.504 233.932 212.551 233.928 212.597C233.925 212.643 233.912 212.689 233.891 212.73C233.869 212.771 233.839 212.807 233.803 212.837C233.767 212.866 233.725 212.888 233.68 212.9L220.44 216.52C220.311 216.556 220.174 216.542 220.055 216.48C219.937 216.419 219.846 216.315 219.8 216.19C216.2 206.01 205.16 202.83 195.06 204.74C180.07 207.58 177.63 223.66 179 236.21C180.08 246.1 184.93 254.79 195.22 256.82C207.593 259.267 216.193 254.777 221.02 243.35C221.113 243.137 221.27 243.07 221.49 243.15L234.32 247.99C234.793 248.17 234.93 248.493 234.73 248.96C229.257 261.52 219.64 268.45 205.88 269.75C197.64 270.53 190.093 269.517 183.24 266.71Z" fill="black"/>
<path d="M370 232.79C370.12 228.25 369.79 220.87 364.06 219.61C358.19 218.33 353.67 220.38 352.97 226.82C352.923 227.26 352.68 227.47 352.24 227.45L337.43 226.74C337.13 226.727 337.007 226.57 337.06 226.27C339.75 212.03 353.12 208.4 365.87 209.56C377.44 210.62 384.95 217.62 385.13 229.78C385.23 236.987 385.267 244.44 385.24 252.14C385.21 257.64 386.47 261.56 393.12 259.97C393.149 259.962 393.18 259.962 393.209 259.968C393.238 259.975 393.266 259.988 393.29 260.007C393.314 260.027 393.334 260.051 393.348 260.079C393.362 260.108 393.369 260.139 393.37 260.17V267.96C393.37 268.032 393.345 268.103 393.3 268.161C393.255 268.218 393.192 268.26 393.12 268.28C388.62 269.613 384.343 269.92 380.29 269.2C374.81 268.23 372.88 264.18 371.99 259.13C371.863 258.437 371.607 258.383 371.22 258.97C367.85 264.16 364.14 267.82 358 269.29C343.2 272.82 331.85 263.81 334.7 248.2C337.67 231.93 357.28 233.6 369.28 233.5C369.753 233.5 369.993 233.263 370 232.79ZM357.96 259.3C366.62 258.62 370.46 250.33 369.98 242.44C369.96 242.093 369.777 241.92 369.43 241.92C365.577 241.86 361.92 241.997 358.46 242.33C352.333 242.91 349.613 246.347 350.3 252.64C350.82 257.44 353.373 259.66 357.96 259.3Z" fill="black"/>
<path d="M414.53 220.98C414.583 221.953 414.82 222 415.24 221.12C419.253 212.647 426.18 208.77 436.02 209.49C448.51 210.41 452.73 220.59 452.8 231.61C452.873 243.817 452.883 256.11 452.83 268.49C452.823 268.83 452.653 269 452.32 269H438.27C437.917 269 437.74 268.82 437.74 268.46C437.7 258.307 437.703 248.203 437.75 238.15C437.79 231.37 437.19 222.47 429.35 220.94C420.09 219.13 415.11 228.5 415.05 236.2C414.943 247.8 414.927 258.493 415 268.28C415.007 268.76 414.77 269 414.29 269H400.29C399.883 269 399.683 268.797 399.69 268.39C399.857 253.17 399.833 236.867 399.62 219.48C399.587 216.647 399.507 213.847 399.38 211.08C399.36 210.653 399.56 210.44 399.98 210.44H413.3C413.713 210.44 413.933 210.643 413.96 211.05L414.53 220.98Z" fill="black"/>
<path d="M289.35 242.89C289.3 252.26 292.95 261.75 304.53 259.49C307.903 258.83 310.17 256.84 311.33 253.52C311.477 253.113 311.767 252.927 312.2 252.96L325.49 254.11C325.544 254.114 325.596 254.13 325.642 254.158C325.688 254.186 325.727 254.225 325.756 254.271C325.784 254.317 325.801 254.369 325.805 254.422C325.809 254.476 325.801 254.53 325.78 254.58C320.6 267.34 308.62 271.41 295.83 269.69C276.94 267.15 272 250.53 273.71 233.95C275.42 217.3 286.58 208.6 303.1 209.5C321.31 210.5 326.9 226.32 326.82 242.06C326.82 242.453 326.623 242.65 326.23 242.65H289.59C289.526 242.65 289.465 242.675 289.42 242.72C289.375 242.765 289.35 242.826 289.35 242.89ZM289.77 233.06L311.73 233.1C311.791 233.1 311.85 233.076 311.893 233.033C311.936 232.989 311.96 232.931 311.96 232.87V232.09C311.963 230.371 311.699 228.667 311.182 227.078C310.665 225.488 309.906 224.044 308.947 222.826C307.989 221.609 306.85 220.642 305.596 219.982C304.343 219.323 302.998 218.982 301.64 218.98H299.9C297.158 218.976 294.527 220.351 292.584 222.802C290.641 225.253 289.546 228.579 289.54 232.05V232.83C289.54 232.891 289.564 232.949 289.607 232.993C289.651 233.036 289.709 233.06 289.77 233.06Z" fill="black"/>
</svg>
