<svg width="0" height="0" class="hidden">
  <symbol fill="none" xmlns="http://www.w3.org/2000/svg" viewBox="0 0 23 20" id="facebook">
    <path d="M16.9519 1.63074H14.1952C12.9767 1.63074 11.808 2.06025 10.9464 2.82478C10.0848 3.58931 9.60072 4.62623 9.60072 5.70744V8.15346H6.84402V11.4148H9.60072V17.9376H13.2763V11.4148H16.033L16.9519 8.15346H13.2763V5.70744C13.2763 5.4912 13.3731 5.28381 13.5454 5.13091C13.7178 4.978 13.9515 4.8921 14.1952 4.8921H16.9519V1.63074Z" stroke="black" stroke-width="2" stroke-linecap="round" stroke-linejoin="round"></path>
  </symbol>
  <symbol fill="none" xmlns="http://www.w3.org/2000/svg" viewBox="0 0 28 48" id="phone">
    <path fill-rule="evenodd" clip-rule="evenodd" d="M3.81172 45.8108C3.22614 45.6128 2.68933 45.2925 2.23687 44.8714C1.78441 44.4502 1.42663 43.9376 1.18723 43.3677C0.94784 42.7978 0.832304 42.1835 0.848278 41.5655C0.864254 40.9476 1.01138 40.34 1.2799 39.7832L4.4532 33.2027C5.03559 31.9962 6.14113 31.1248 7.45027 30.8389L12.9632 29.6334C13.2487 29.5709 13.5132 29.4356 13.7309 29.2406C13.9487 29.0457 14.1123 28.7978 14.206 28.521L16.9828 20.2899C17.0762 20.0125 17.0962 19.7156 17.0408 19.4282C16.9854 19.1408 16.8566 18.8726 16.6667 18.6497L13.0117 14.3533C12.5832 13.8497 12.2747 13.2552 12.1097 12.6149C11.9447 11.9745 11.9274 11.305 12.0591 10.657L13.5183 3.50008C14.043 0.927126 16.7028 -0.602804 19.1863 0.236877L22.6502 1.40545C25.1292 2.24176 27.0849 4.35857 27.4161 7.07102C28.2651 14.0128 27.5404 21.0566 25.2956 27.68C23.0699 34.3091 19.3804 40.3521 14.5007 45.3609C12.5952 47.315 9.75469 47.8157 7.27566 46.9794L3.81172 45.8108Z" fill="black"></path>
  </symbol>
  <symbol fill="none" xmlns="http://www.w3.org/2000/svg" viewBox="0 0 15 14" id="search">
    <g clip-path="url(#clip0_1_368)">
      <path d="M7.07666 11.306C10.1508 11.306 12.6429 9.05621 12.6429 6.28102C12.6429 3.50584 10.1508 1.2561 7.07666 1.2561C4.00255 1.2561 1.5105 3.50584 1.5105 6.28102C1.5105 9.05621 4.00255 11.306 7.07666 11.306Z" stroke="black" stroke-linecap="round" stroke-linejoin="round"></path>
      <path d="M14.0344 12.5622L11.0078 9.82983" stroke="black" stroke-linecap="round" stroke-linejoin="round"></path>
    </g>
    <defs>
      <clipPath id="clip0_1_368">
        <rect width="14.4506" height="13.0455" fill="white" transform="translate(0.547119 0.386353)"></rect>
      </clipPath>
    </defs>
  </symbol>
  <symbol fill="none" xmlns="http://www.w3.org/2000/svg" viewBox="0 0 23 20" id="telegram">
    <g clip-path="url(#clip0_1_240)">
      <path d="M20.4694 0.00200357C20.2019 0.0215776 19.9392 0.0846958 19.6919 0.188896H19.6885C19.451 0.283599 18.3218 0.761305 16.6049 1.48541L10.4527 4.091C6.03818 5.95992 1.69864 7.80035 1.69864 7.80035L1.75032 7.78024C1.75032 7.78024 1.45112 7.87913 1.13859 8.09452C0.945513 8.21808 0.77937 8.37972 0.650214 8.56972C0.496868 8.79599 0.373524 9.14212 0.419361 9.49999C0.494367 10.1051 0.884401 10.468 1.16443 10.6683C1.44778 10.8711 1.71781 10.9658 1.71781 10.9658H1.72447L5.794 12.3444C5.97651 12.9336 7.0341 16.4301 7.2883 17.2355C7.4383 17.7165 7.58415 18.0175 7.76666 18.2471C7.85501 18.3643 7.95835 18.4625 8.08252 18.5412C8.14709 18.5789 8.21592 18.6088 8.28754 18.6301L8.24587 18.62C8.25838 18.6233 8.26838 18.6333 8.27754 18.6367C8.31088 18.646 8.33339 18.6493 8.37589 18.656C9.02011 18.8521 9.53765 18.4498 9.53765 18.4498L9.56682 18.4264L11.9695 16.2265L15.9966 19.3332L16.0882 19.3726C16.9275 19.743 17.7775 19.5369 18.2267 19.1732C18.6793 18.8069 18.8551 18.3384 18.8551 18.3384L18.8843 18.263L21.9962 2.23129C22.0845 1.83573 22.1071 1.46529 22.0095 1.10576C21.909 0.741883 21.6768 0.428928 21.3587 0.228285C21.0915 0.0649559 20.7817 -0.0138793 20.4694 0.00200357ZM20.3852 1.72007C20.3819 1.77286 20.392 1.76701 20.3686 1.86841V1.87763L17.2858 17.7425C17.2724 17.7652 17.25 17.8146 17.1883 17.8641C17.1233 17.916 17.0716 17.9487 16.8008 17.8406L11.8754 14.0432L8.9001 16.7703L9.52515 12.7559L17.5725 5.2132C17.9042 4.90311 17.7933 4.83774 17.7933 4.83774C17.8167 4.45724 17.2924 4.72626 17.2924 4.72626L7.14495 11.0479L7.14161 11.0312L2.27786 9.38433V9.38097L2.26536 9.37846C2.27388 9.37561 2.28223 9.37226 2.29035 9.3684L2.31703 9.355L2.34286 9.34578C2.34286 9.34578 6.68574 7.50535 11.1003 5.63643C13.3105 4.70029 15.5374 3.75744 17.25 3.02999C18.2656 2.60006 19.2824 2.17264 20.3003 1.74773C20.3686 1.7209 20.3361 1.72007 20.3852 1.72007Z" fill="black"></path>
    </g>
    <defs>
      <clipPath id="clip0_1_240">
        <rect width="22.0535" height="19.5682" fill="white" transform="translate(0.409668)"></rect>
      </clipPath>
    </defs>
  </symbol>
  <symbol fill="none" xmlns="http://www.w3.org/2000/svg" viewBox="0 0 15 14" id="user">
    <g clip-path="url(#clip0_1_371)">
      <path d="M13.0206 12.4939V11.2377C13.0206 10.5714 12.7288 9.9323 12.2096 9.4611C11.6903 8.98992 10.986 8.72522 10.2517 8.72522H4.71392C3.97957 8.72522 3.27529 8.98992 2.75603 9.4611C2.23675 9.9323 1.94504 10.5714 1.94504 11.2377V12.4939" stroke="black" stroke-linecap="round" stroke-linejoin="round"></path>
      <path d="M7.4828 6.21278C9.01201 6.21278 10.2517 5.08792 10.2517 3.70033C10.2517 2.31273 9.01201 1.18787 7.4828 1.18787C5.9536 1.18787 4.71393 2.31273 4.71393 3.70033C4.71393 5.08792 5.9536 6.21278 7.4828 6.21278Z" stroke="black" stroke-linecap="round" stroke-linejoin="round"></path>
    </g>
    <defs>
      <clipPath id="clip0_1_371">
        <rect width="13.4184" height="13.0455" fill="white" transform="translate(0.986572 0.318115)"></rect>
      </clipPath>
    </defs>
  </symbol>
  <symbol fill="none" xmlns="http://www.w3.org/2000/svg" viewBox="0 0 23 20" id="viber">
    <g clip-path="url(#clip0_1_236)">
      <path d="M9.91587 0.00284775C8.14585 0.0218068 4.34046 0.279894 2.21203 2.01251C0.628804 3.40446 0.0760185 5.46243 0.0112283 8.00722C-0.0425339 10.5428 -0.107324 15.3047 5.06555 16.6011V18.5759C5.06555 18.5759 5.03316 19.3661 5.62178 19.5281C6.34689 19.7319 6.75975 19.124 7.44901 18.4708L8.73448 17.181C12.2738 17.442 14.9846 16.8402 15.2969 16.751C16.0151 16.5474 20.0603 16.0887 20.7214 11.3263C21.3996 6.40794 20.3911 3.30906 18.5708 1.90731H18.5598C18.0105 1.45842 15.8028 0.0309805 10.8705 0.0150794C10.8705 0.0150794 10.5045 -0.00632597 9.91587 0.00284775ZM9.97652 1.38564C10.479 1.38257 10.7843 1.40154 10.7843 1.40154C14.9592 1.41132 16.9518 2.52623 17.4219 2.90174C18.9549 4.06742 19.7447 6.86111 19.1664 10.9673C18.617 14.9487 15.3362 15.2007 14.729 15.3725C14.4705 15.4458 12.0829 15.9682 9.07497 15.7964C9.07497 15.7964 6.83488 18.1949 6.1346 18.8126C6.02363 18.9209 5.89404 18.9527 5.81133 18.9368C5.69278 18.9111 5.65694 18.7809 5.66383 18.6023L5.68519 15.3248C1.29807 14.2484 1.55654 10.1869 1.60341 8.06533C1.65718 5.94374 2.10588 4.20809 3.44166 3.03262C5.23993 1.5899 8.47256 1.39542 9.97652 1.38564ZM10.3074 3.50659C10.2713 3.50628 10.2354 3.51229 10.202 3.52431C10.1685 3.53634 10.138 3.55412 10.1123 3.57662C10.0866 3.59914 10.0662 3.62595 10.0523 3.65549C10.0383 3.68503 10.0311 3.71674 10.031 3.74878C10.031 3.88577 10.1564 3.99402 10.3074 3.99402C10.9908 3.98249 11.67 4.09112 12.3058 4.31365C12.9417 4.53618 13.5216 4.86821 14.0121 5.29058C15.0136 6.15352 15.5016 7.31307 15.5202 8.82919C15.5202 8.96313 15.6423 9.07443 15.7967 9.07443V9.06465C15.8694 9.0648 15.9393 9.03944 15.991 8.99407C16.0428 8.94871 16.0723 8.88702 16.0731 8.82246C16.1064 8.10883 15.976 7.39663 15.6896 6.72912C15.4032 6.06161 14.9669 5.45274 14.4071 4.93953C13.316 3.99341 11.9333 3.50659 10.3074 3.50659ZM6.67428 4.06742C6.4792 4.04212 6.28021 4.07687 6.11048 4.16588H6.09599C5.70193 4.37084 5.34692 4.6299 5.04419 4.93341C4.79262 5.1915 4.65613 5.45265 4.62029 5.70401C4.59893 5.85385 4.61341 6.00369 4.66372 6.1468L4.68164 6.15658C4.96493 6.89537 5.33506 7.60602 5.78721 8.2751C6.36965 9.21506 7.08643 10.0844 7.91978 10.8615L7.94459 10.8933L7.98388 10.919L8.00868 10.9446L8.03763 10.9667C8.9166 11.7083 9.8987 12.3472 10.9601 12.8681C12.1732 13.4539 12.9093 13.731 13.3511 13.8459V13.8521C13.4807 13.887 13.5986 13.9028 13.7171 13.9028C14.0936 13.8784 14.4501 13.7427 14.7297 13.5176C15.0702 13.2488 15.3588 12.9326 15.5844 12.5812V12.5751C15.7959 12.2216 15.7242 11.8871 15.4189 11.6608C14.8073 11.1865 14.1461 10.7653 13.4442 10.4028C12.9741 10.1765 12.4964 10.3135 12.3028 10.5428L11.8899 11.0046C11.6783 11.2339 11.2937 11.2021 11.2937 11.2021L11.2827 11.2082C8.41466 10.5581 7.64959 7.98154 7.64959 7.98154C7.64959 7.98154 7.61375 7.6311 7.87911 7.45252L8.39604 7.08312C8.6435 6.90454 8.81581 6.48132 8.55045 6.06362C8.14475 5.4399 7.67103 4.85303 7.13608 4.31143C7.01914 4.18376 6.85508 4.09689 6.6729 4.06619L6.67428 4.06742ZM10.7843 4.79397C10.4183 4.79397 10.4183 5.28447 10.7878 5.28447C11.2429 5.29101 11.6921 5.37708 12.1097 5.53774C12.5273 5.6984 12.9051 5.9305 13.2215 6.22079C13.5102 6.50336 13.7321 6.83444 13.8739 7.19445C14.0157 7.55447 14.0747 7.93609 14.0473 8.31669C14.0485 8.38109 14.0782 8.44251 14.1298 8.48778C14.1815 8.53303 14.2511 8.55856 14.3237 8.55886L14.3347 8.57171C14.4078 8.57123 14.4778 8.54524 14.5295 8.49935C14.5813 8.45347 14.6106 8.39136 14.6111 8.32647C14.6359 7.35466 14.2954 6.53943 13.6275 5.88625C12.9562 5.23309 12.0195 4.86675 10.8236 4.79397H10.7843ZM11.2372 6.11254C10.8601 6.10276 10.8457 6.60304 11.2192 6.61282C12.1277 6.65441 12.5688 7.06171 12.6267 7.89958C12.628 7.96318 12.6572 8.02382 12.7083 8.06851C12.7593 8.1132 12.828 8.13841 12.8997 8.13871H12.9107C12.9475 8.13731 12.9837 8.12941 13.0171 8.11546C13.0505 8.10153 13.0804 8.08183 13.1051 8.05751C13.1298 8.03321 13.1488 8.00477 13.161 7.97388C13.1732 7.94297 13.1783 7.91024 13.1761 7.87756C13.1113 6.78528 12.4399 6.17003 11.2482 6.11315L11.2372 6.11254Z" fill="black"></path>
    </g>
    <defs>
      <clipPath id="clip0_1_236">
        <rect width="22.0535" height="19.5682" fill="white"></rect>
      </clipPath>
    </defs>
  </symbol>
  <symbol fill="none" xmlns="http://www.w3.org/2000/svg" viewBox="0 0 23 20" id="whatsapp">
    <g clip-path="url(#clip0_1_238)">
      <path fill-rule="evenodd" clip-rule="evenodd" d="M16.1613 11.7262C15.8874 11.6048 14.5449 11.0194 14.295 10.9378C14.045 10.8571 13.8631 10.8171 13.6802 11.0601C13.4983 11.3014 12.9754 11.8477 12.8165 12.0092C12.6566 12.1714 12.4976 12.191 12.2247 12.0703C11.9518 11.948 11.0715 11.6928 10.0285 10.8677C9.21717 10.2252 8.66859 9.43188 8.50961 9.18891C8.35065 8.94676 8.49216 8.81548 8.62907 8.69481C8.7522 8.58638 8.90198 8.41189 9.0389 8.27083C9.17581 8.12896 9.22084 8.02786 9.3118 7.86562C9.40369 7.70418 9.35775 7.56312 9.28884 7.44164C9.22084 7.32015 8.67502 6.12731 8.44713 5.64219C8.22568 5.1701 8.00055 5.23452 7.83331 5.22636C7.67342 5.21984 7.49148 5.21821 7.30954 5.21821C7.12759 5.21821 6.83171 5.27855 6.58177 5.52152C6.33092 5.76367 5.62612 6.3499 5.62612 7.54274C5.62612 8.73477 6.60382 9.88684 6.74075 10.0491C6.87765 10.2105 8.66583 12.6582 11.4051 13.7076C12.0575 13.957 12.5656 14.1062 12.9617 14.2171C13.6159 14.4022 14.2114 14.3761 14.6818 14.3133C15.2057 14.244 16.2973 13.7271 16.5252 13.1612C16.7521 12.5954 16.7521 12.1103 16.6841 12.0092C16.6161 11.9081 16.4352 11.8477 16.1613 11.7262ZM11.179 17.7622H11.1753C9.54837 17.7625 7.95126 17.3744 6.55145 16.6386L6.22065 16.4642L2.78214 17.2648L3.70012 14.2904L3.48417 13.9856C2.5746 12.7009 2.09324 11.214 2.09573 9.69687C2.09756 5.25326 6.17194 1.63805 11.1827 1.63805C13.6086 1.63805 15.8893 2.47786 17.6039 4.0009C18.4496 4.74823 19.12 5.63694 19.5761 6.61561C20.0323 7.5943 20.2652 8.64352 20.2614 9.70257C20.2596 14.1462 16.1851 17.7622 11.179 17.7622ZM18.9088 2.84394C17.8963 1.93967 16.6916 1.22267 15.3646 0.734492C14.0376 0.246318 12.6146 -0.00332352 11.1781 3.34106e-05C5.15564 3.34106e-05 0.252419 4.34987 0.250581 9.69605C0.249662 11.405 0.752298 13.0732 1.70886 14.5433L0.158691 19.5682L5.95141 18.2196C7.55384 18.9942 9.34958 19.4002 11.1744 19.4002H11.179C17.2015 19.4002 22.1046 15.0503 22.1065 9.70339C22.1109 8.42923 21.8306 7.16695 21.2817 5.98955C20.7329 4.81214 19.9263 3.74299 18.9088 2.84394Z" fill="black"></path>
    </g>
    <defs>
      <clipPath id="clip0_1_238">
        <rect width="22.0535" height="19.5682" fill="white" transform="translate(0.158691)"></rect>
      </clipPath>
    </defs>
  </symbol>
  <symbol xmlns="http://www.w3.org/2000/svg" version="1.1" xmlns:xlink="http://www.w3.org/1999/xlink" x="0" y="0" xml:space="preserve" viewBox="0 0 512 512" id="experiance">
    <g>
      <path fill-rule="evenodd" d="m175.471 392.682-28.979-28.977-75.472-75.474c-11.631-11.633-11.631-30.608 0-42.242l7.859-7.856c11.631-11.633 30.607-11.633 42.24 0l54.352 54.35c11.633 11.633 30.609 11.634 42.242 0l173.166-173.165c11.633-11.634 30.609-11.634 42.242 0l7.857 7.856c11.633 11.633 11.635 30.609 0 42.242L246.691 363.705l-28.979 28.977c-11.632 11.632-30.608 11.632-42.241 0z" clip-rule="evenodd" fill="#000000" opacity="1" data-original="#000000"></path>
    </g>
  </symbol>
  <symbol version="1.0" xmlns="http://www.w3.org/2000/svg" preserveAspectRatio="xMidYMid meet" viewBox="0 0 1280.000000 640.000000" id="garanty">
    <g transform="translate(0.000000,640.000000) scale(0.100000,-0.100000)" fill="#000000" stroke="none">
      <path d="M9638 6075 c-772 -93 -1504 -467 -2317 -1184 -198 -174 -334 -303
-657 -624 -230 -229 -264 -258 -281 -249 -11 6 -100 93 -199 194 -1144 1171
-1886 1664 -2745 1822 -560 103 -1141 38 -1669 -186 -885 -376 -1533 -1167
-1714 -2093 -41 -207 -51 -318 -51 -565 0 -392 54 -719 176 -1065 338 -964
1145 -1627 2164 -1779 634 -95 1337 26 1957 335 243 121 448 250 703 441 321
239 556 450 1061 950 176 175 327 318 334 318 8 0 77 -66 154 -146 172 -179
592 -584 770 -743 820 -731 1442 -1055 2226 -1163 58 -8 194 -12 350 -12 213
0 279 4 400 23 650 100 1205 379 1659 832 457 457 742 1045 823 1699 19 155
16 563 -6 720 -78 561 -275 1067 -568 1457 -95 128 -294 332 -425 435 -364
290 -837 486 -1378 570 -172 26 -594 34 -767 13z m-6331 -1199 c336 -71 676
-233 1010 -481 119 -88 297 -234 413 -339 146 -133 880 -850 880 -860 0 -16
-640 -649 -795 -788 -492 -438 -947 -715 -1375 -839 -202 -58 -321 -74 -565
-74 -190 0 -235 3 -334 23 -590 119 -1022 504 -1210 1077 -160 489 -130 953
90 1385 252 496 706 824 1266 915 63 10 146 13 293 10 172 -3 225 -8 327 -29z
m6863 19 c327 -46 605 -171 841 -378 439 -384 649 -1063 517 -1677 -134 -625
-615 -1131 -1229 -1295 -148 -39 -279 -55 -454 -55 -310 0 -559 62 -870 215
-327 160 -642 391 -1037 761 -248 232 -743 719 -746 734 -3 16 466 495 668
681 682 630 1221 933 1800 1014 130 18 382 18 510 0z"></path>
    </g>
  </symbol>
  <symbol xmlns="http://www.w3.org/2000/svg" version="1.1" xmlns:xlink="http://www.w3.org/1999/xlink" x="0" y="0" xml:space="preserve" viewBox="0 0 64 64" id="secure">
    <g>
      <path d="M31.5 54.9c.2 0 .4.1.5.1s.4 0 .5-.1C33.3 54.7 52 49.4 52 37V14c0-.8-.5-1.5-1.2-1.8-12-5.3-25.7-5.3-37.6 0-.7.3-1.2 1-1.2 1.8v23c0 12.4 18.7 17.7 19.5 17.9zm-8.9-26.4c.8-.8 2-.8 2.8 0l4.7 4.7 8.5-8.5c.8-.8 2-.8 2.8 0s.8 2 0 2.8l-9.9 9.9c-.4.4-.9.6-1.4.6s-1-.2-1.4-.6l-6.1-6.1c-.8-.8-.8-2.1 0-2.8z" fill="#000000" opacity="1" data-original="#000000"></path>
    </g>
  </symbol>
  <symbol fill="none" xmlns="http://www.w3.org/2000/svg" viewBox="0 0 15 15" id="chat">
    <path d="M14 7.1389C14.0025 8.09214 13.7798 9.03248 13.35 9.88334C12.8404 10.9029 12.057 11.7605 11.0876 12.36C10.1181 12.9596 9.00094 13.2773 7.8611 13.2778C6.90786 13.2803 5.96752 13.0576 5.11666 12.6278L1 14L2.37222 9.88334C1.94245 9.03248 1.71974 8.09214 1.72222 7.1389C1.72266 5.99906 2.04044 4.88185 2.63996 3.91241C3.23948 2.94298 4.09707 2.1596 5.11666 1.65002C5.96752 1.22025 6.90786 0.997536 7.8611 1.00002H8.22221C9.72757 1.08307 11.1494 1.71846 12.2155 2.78453C13.2815 3.8506 13.9169 5.27243 14 6.77779V7.1389Z" stroke="white" stroke-linecap="round" stroke-linejoin="round"></path>
  </symbol>
  <symbol xmlns="http://www.w3.org/2000/svg" id="bitcoin" viewBox=".004 0 63.993 64">
    <path fill="#f7931a" d="M63.04 39.741c-4.274 17.143-21.638 27.575-38.783 23.301C7.12 58.768-3.313 41.404.962 24.262 5.234 7.117 22.597-3.317 39.737.957c17.144 4.274 27.576 21.64 23.302 38.784z"></path>
    <path fill="#fff" d="M46.11 27.441c.636-4.258-2.606-6.547-7.039-8.074l1.438-5.768-3.512-.875-1.4 5.616c-.922-.23-1.87-.447-2.812-.662l1.41-5.653-3.509-.875-1.439 5.766c-.764-.174-1.514-.346-2.242-.527l.004-.018-4.842-1.209-.934 3.75s2.605.597 2.55.634c1.422.355 1.68 1.296 1.636 2.042l-1.638 6.571c.098.025.225.061.365.117l-.37-.092-2.297 9.205c-.174.432-.615 1.08-1.609.834.035.051-2.552-.637-2.552-.637l-1.743 4.02 4.57 1.139c.85.213 1.683.436 2.502.646l-1.453 5.835 3.507.875 1.44-5.772c.957.26 1.887.5 2.797.726L27.504 50.8l3.511.875 1.453-5.823c5.987 1.133 10.49.676 12.383-4.738 1.527-4.36-.075-6.875-3.225-8.516 2.294-.531 4.022-2.04 4.483-5.157zM38.087 38.69c-1.086 4.36-8.426 2.004-10.807 1.412l1.928-7.729c2.38.594 10.011 1.77 8.88 6.317zm1.085-11.312c-.99 3.966-7.1 1.951-9.083 1.457l1.748-7.01c1.983.494 8.367 1.416 7.335 5.553z"></path>
  </symbol>
  <symbol xmlns="http://www.w3.org/2000/svg" id="etherium" viewBox="0 0 40 65">
    <g fill="none" fill-rule="evenodd">
      <g fill-rule="nonzero" transform="translate(-227 -93)">
        <g transform="translate(227 93)">
          <g>
            <path fill="#8A92B2" d="M20.1.8v23.3c0 .1-.1.2-.2.2-.7.3-1.3.6-2 .9-.9.4-1.9.8-2.8 1.3L11.8 28l-2.7 1.2-3.3 1.5c-.9.4-1.8.8-2.8 1.3-.7.3-1.5.7-2.2 1-.1 0-.1.1-.2 0H.5c.3-.5.6-.9.9-1.4 1.6-2.7 3.3-5.4 4.9-8.1 1.7-2.9 3.5-5.8 5.2-8.7 1.6-2.7 3.2-5.4 4.8-8 1.2-2 2.4-3.9 3.5-5.9.2 0 .2-.1.3-.1-.1 0 0 0 0 0z"></path>
            <path fill="#454A75" d="M39.5 33c-1.5 1-3.1 1.9-4.6 2.8-4.9 2.9-9.7 5.7-14.6 8.6-.1 0-.1.1-.2.1s-.1-.1-.1-.1v-.3-19.5-.3c0-.1.1-.1.2-.1.4.2.8.4 1.3.6 1.2.6 2.5 1.1 3.7 1.7 1.1.5 2.1 1 3.2 1.4 1.1.5 2.1 1 3.2 1.5.9.4 1.9.8 2.8 1.3.9.4 1.9.8 2.8 1.3.7.3 1.4.7 2.2 1 0-.1 0 0 .1 0z"></path>
            <path fill="#8A92B2" d="M20.1 64.1s-.1 0 0 0c-.1 0-.1 0-.2-.1-2-2.8-3.9-5.5-5.9-8.3l-6-8.4c-1.9-2.7-3.9-5.4-5.8-8.2L.7 37c0-.1-.1-.1-.1-.2.1 0 .1.1.2.1 2.7 1.6 5.5 3.2 8.2 4.8 3.1 1.9 6.3 3.7 9.4 5.6.5.3 1.1.6 1.6.9.1 0 .1.1.1.2V64.1z"></path>
            <path fill="gray" d="M.6 33s.1 0 0 0c.1 0 .1 0 0 0 0 .1 0 .1 0 0z"></path>
            <path fill="#62688F" d="M.7 33.1c0-.1 0-.1 0 0 1-.5 2-.9 3-1.4l3.9-1.8c1-.5 2-.9 3-1.4 1.4-.7 2.9-1.3 4.3-2 1-.4 2-.9 3-1.3.7-.3 1.4-.6 2.1-1 .1 0 .1-.1.2-.1V44.5c-.1.1-.1 0-.2 0-.3-.2-.6-.3-.8-.5L.9 33.2c-.1-.1-.2-.1-.2-.1zM39.4 36.8c0 .1 0 .1-.1.2-5.8 8.2-11.6 16.3-17.4 24.5-.6.9-1.2 1.7-1.8 2.6V64v-.2-15.3-.3c1.3-.8 2.6-1.6 3.9-2.3l15.3-9c0-.1.1-.1.1-.1z"></path>
            <path fill="#62688F" d="M20.1 24.2V24 1.1.9l19.2 31.8c.1.1.2.2.2.3-.4-.2-.8-.4-1.3-.6-.5-.2-1-.5-1.5-.7-.3-.1-.6-.3-1-.4-.5-.2-1.1-.5-1.6-.7-.3-.1-.6-.3-.9-.4l-2.1-.9c-.4-.2-.7-.3-1.1-.5-.5-.2-1-.5-1.5-.7-.3-.1-.6-.3-.9-.4l-2.1-.9c-.4-.2-.7-.3-1.1-.5-.5-.2-1-.5-1.5-.7-.3-.2-.7-.3-1-.5l-1.8-.9z"></path>
          </g>
        </g>
      </g>
    </g>
  </symbol>
  <symbol xmlns="http://www.w3.org/2000/svg" xmlns:xlink="http://www.w3.org/1999/xlink" version="1.1" id="fondy" x="0px" y="0px" enable-background="new 0 0 113.4 34" xml:space="preserve" viewBox="0 0 113.4 34">
    <rect y="0" fill="none" width="113.4" height="34"></rect>
    <g>
      <path d="M47.6,10V7.6h-9.4v16.4h2.7v-6.8H47v-2.5h-6.1V10H47.6z M47.6,10"></path>
      <path d="M73.4,16.8v7.1h2.5v-7.8c0-1.8-0.9-5.1-4.8-5.1c-3,0-4.2,1.9-4.2,1.9l-0.2-1.6h-2.2v12.7h2.6v-6.4c0-2.8,1.5-4.1,3.4-4.1   C72.8,13.3,73.4,15.2,73.4,16.8L73.4,16.8z M73.4,16.8"></path>
      <path d="M101,22.8l5.2-11.6h-2.6l-3.8,8.9l-4-8.9H93L98.5,23c-0.1,0.3-0.8,2-1.4,2.5c-0.5,0.5-1.1,0.6-1.9,0.6l0.4,2.2   c0.6,0,1.1-0.1,1.7-0.3c0.5-0.2,1-0.5,1.4-0.9c1.2-1.2,2.2-3.8,2.2-3.8L101,22.8L101,22.8L101,22.8z M101,22.8"></path>
      <path d="M56,11h-0.7c-1.7,0-3.3,0.7-4.4,1.9c-1.2,1.2-1.8,2.8-1.8,4.5v0.5c0,1.7,0.7,3.3,1.8,4.5c1.2,1.2,2.8,1.8,4.4,1.8H56   c1.7,0,3.3-0.7,4.5-1.8c1.2-1.2,1.8-2.8,1.8-4.5v-0.5c0-1.7-0.7-3.3-1.8-4.5C59.3,11.7,57.7,11,56,11L56,11z M59.8,17.8   c0,1.1-0.4,2.1-1.2,2.8c-0.8,0.8-1.8,1.2-2.8,1.2h-0.1c-1.1,0-2.1-0.4-2.8-1.2c-0.8-0.8-1.2-1.8-1.2-2.8v-0.3   c0-1.1,0.4-2.1,1.2-2.8c0.8-0.8,1.8-1.2,2.8-1.2h0.1c1.1,0,2.1,0.4,2.8,1.2c0.8,0.8,1.2,1.8,1.2,2.8L59.8,17.8z M59.8,17.8"></path>
      <path d="M88.7,6.7v5.7c-1.1-0.9-2.5-1.4-3.9-1.4h-0.4c-1.7,0-3.3,0.7-4.5,1.9c-1.2,1.2-1.8,2.8-1.8,4.5v0.5c0,1.7,0.7,3.3,1.8,4.5   c1.2,1.2,2.8,1.8,4.5,1.8h0.4c1.6,0,3.1-0.6,4.3-1.7l0.2,1.4h2V6.7H88.7z M88.8,17.8c0,1.1-0.4,2.1-1.2,2.8   c-0.8,0.8-1.8,1.2-2.8,1.2h-0.1c-1.1,0-2.1-0.4-2.8-1.2c-0.8-0.8-1.2-1.8-1.2-2.8v-0.3c0-1.1,0.4-2.1,1.2-2.8   c0.8-0.8,1.8-1.2,2.8-1.2h0.1c1.1,0,2.1,0.4,2.8,1.2c0.8,0.8,1.2,1.8,1.2,2.8V17.8z M88.8,17.8"></path>
      <path fill="#08A835" d="M21.1,23.8v-2.7c0-0.1,0-0.3-0.1-0.4c-0.1-0.1-0.2-0.2-0.3-0.3L18.3,19c-0.1-0.1-0.3-0.1-0.4-0.1   c-0.1,0-0.3,0-0.4,0.1l-2.3,1.3c-0.1,0.1-0.2,0.2-0.3,0.3c-0.1,0.1-0.1,0.3-0.1,0.4v2.7c0,0.1,0,0.3,0.1,0.4   c0.1,0.1,0.2,0.2,0.3,0.3l2.3,1.3c0.1,0.1,0.3,0.1,0.4,0.1c0.1,0,0.3,0,0.4-0.1l2.3-1.3c0.1-0.1,0.2-0.2,0.3-0.3   C21.1,24.1,21.1,23.9,21.1,23.8L21.1,23.8z M21.1,23.8"></path>
      <path fill="#08A835" d="M28.7,23.8v-2.7c0-0.1,0-0.3-0.1-0.4c-0.1-0.1-0.2-0.2-0.3-0.3L25.9,19c-0.1-0.1-0.3-0.1-0.4-0.1   c-0.1,0-0.3,0-0.4,0.1l-2.3,1.3c-0.1,0.1-0.2,0.2-0.3,0.3c-0.1,0.1-0.1,0.3-0.1,0.4v2.7c0,0.1,0,0.3,0.1,0.4   c0.1,0.1,0.2,0.2,0.3,0.3l2.3,1.3c0.1,0.1,0.3,0.1,0.4,0.1c0.1,0,0.3,0,0.4-0.1l2.3-1.3c0.1-0.1,0.2-0.2,0.3-0.3   C28.6,24.1,28.7,23.9,28.7,23.8L28.7,23.8z M28.7,23.8"></path>
      <path fill="#08A835" d="M17.3,17.2v-2.7c0-0.1,0-0.3-0.1-0.4c-0.1-0.1-0.2-0.2-0.3-0.3l-2.3-1.3c-0.1-0.1-0.3-0.1-0.4-0.1   c-0.1,0-0.3,0-0.4,0.1l-2.3,1.3c-0.1,0.1-0.2,0.2-0.3,0.3C11,14.2,11,14.3,11,14.5v2.7c0,0.1,0,0.3,0.1,0.4   c0.1,0.1,0.2,0.2,0.3,0.3l2.3,1.3c0.1,0.1,0.3,0.1,0.4,0.1c0.1,0,0.3,0,0.4-0.1l2.3-1.3c0.1-0.1,0.2-0.2,0.3-0.3   C17.3,17.5,17.3,17.3,17.3,17.2L17.3,17.2z M17.3,17.2"></path>
      <path fill="#08A835" d="M24.9,17.2v-2.7c0-0.1,0-0.3-0.1-0.4c-0.1-0.1-0.2-0.2-0.3-0.3l-2.3-1.3c-0.1-0.1-0.3-0.1-0.4-0.1   c-0.1,0-0.3,0-0.4,0.1L19,13.7c-0.1,0.1-0.2,0.2-0.3,0.3c-0.1,0.1-0.1,0.3-0.1,0.4v2.7c0,0.1,0,0.3,0.1,0.4   c0.1,0.1,0.2,0.2,0.3,0.3l2.3,1.3c0.1,0.1,0.3,0.1,0.4,0.1c0.1,0,0.3,0,0.4-0.1l2.3-1.3c0.1-0.1,0.2-0.2,0.3-0.3   C24.8,17.5,24.9,17.3,24.9,17.2L24.9,17.2z M24.9,17.2"></path>
      <path fill="#08A835" d="M13.5,23.8v-2.7c0-0.1,0-0.3-0.1-0.4c-0.1-0.1-0.2-0.2-0.3-0.3L10.8,19c-0.1-0.1-0.3-0.1-0.4-0.1   c-0.1,0-0.3,0-0.4,0.1l-2.3,1.3c-0.1,0.1-0.2,0.2-0.3,0.3c-0.1,0.1-0.1,0.3-0.1,0.4v2.7c0,0.1,0,0.3,0.1,0.4   c0.1,0.1,0.2,0.2,0.3,0.3l2.3,1.3c0.1,0.1,0.3,0.1,0.4,0.1c0.1,0,0.3,0,0.4-0.1l2.3-1.3c0.1-0.1,0.2-0.2,0.3-0.3   C13.5,24.1,13.5,23.9,13.5,23.8L13.5,23.8z M13.5,23.8"></path>
      <path d="M21.1,10.6V7.9c0-0.1,0-0.3-0.1-0.4c-0.1-0.1-0.2-0.2-0.3-0.3l-2.3-1.3c-0.1-0.1-0.3-0.1-0.4-0.1c-0.1,0-0.3,0-0.4,0.1   l-2.3,1.3c-0.1,0.1-0.2,0.2-0.3,0.3c-0.1,0.1-0.1,0.3-0.1,0.4v2.7c0,0.1,0,0.3,0.1,0.4c0.1,0.1,0.2,0.2,0.3,0.3l2.3,1.3   c0.1,0.1,0.3,0.1,0.4,0.1c0.1,0,0.3,0,0.4-0.1l2.3-1.3c0.1-0.1,0.2-0.2,0.3-0.3C21.1,10.9,21.1,10.7,21.1,10.6L21.1,10.6z    M21.1,10.6"></path>
    </g>
  </symbol>
  <symbol xmlns="http://www.w3.org/2000/svg" id="maestro" viewBox="0 0 64 64">
    <path fill="#07A9E2" fill-rule="evenodd" d="M32 46c3.8-3.4 6.2-8.4 6.2-14S35.8 21.5 32 18c-3.3-3-7.8-4.9-12.6-4.9C9 13.1.5 21.6.5 32 .5 42.4 9 50.8 19.4 50.8c4.8.1 9.3-1.8 12.6-4.8z" clip-rule="evenodd"></path>
    <path fill="#009DDD" fill-rule="evenodd" d="M.5 32C.5 42.4 9 50.8 19.4 50.8c4.9 0 9.3-1.8 12.6-4.9 3.8-3.4 6.2-8.4 6.2-14S35.8 21.5 32 18c-3.3-3-7.8-4.9-12.6-4.9" clip-rule="evenodd"></path>
    <path fill="#0284CC" fill-rule="evenodd" d="M32 18c-3.3-3-7.8-4.9-12.6-4.9h-.9C12.6 17.4 8.8 24.3 8.8 32s3.8 14.6 9.6 18.8h.9c4.9 0 9.3-1.8 12.6-4.9 3.8-3.4 6.2-8.4 6.2-14S35.8 21.5 32 18z" clip-rule="evenodd"></path>
    <path fill="#FF2957" fill-rule="evenodd" d="M44.7 13.1c-4.9 0-9.3 1.8-12.7 4.9-.7.6-1.3 1.3-1.9 2h3.8c.5.6 1 1.3 1.4 2h-6.7c-.4.7-.8 1.3-1.1 2h8.9c.3.7.6 1.3.8 2H26.8c-.2.7-.4 1.3-.6 2h11.6c.3 1.3.4 2.6.4 4 0 2.1-.3 4.1-1 6H26.8c.2.7.5 1.3.8 2h8.9c-.3.7-.7 1.4-1.1 2h-6.7c.4.7.9 1.4 1.4 2h3.8c-.6.7-1.2 1.4-1.9 2 3.4 3 7.8 4.9 12.7 4.9 10.4 0 18.8-8.4 18.8-18.8 0-10.5-8.4-19-18.8-19z" clip-rule="evenodd"></path>
    <path fill="#ED1C2E" fill-rule="evenodd" d="M44.7 13.1c-4.9 0-9.3 1.8-12.7 4.9-.7.6-1.3 1.3-1.9 2h3.8c.5.6 1 1.3 1.4 2h-6.7c-.4.7-.8 1.3-1.1 2h8.9c.3.7.6 1.3.8 2H26.8c-.2.7-.4 1.3-.6 2h11.6c.3 1.3.4 2.6.4 4 0 2.1-.3 4.1-1 6H26.8c.2.7.5 1.3.8 2h8.9c-.3.7-.7 1.4-1.1 2h-6.7c.4.7.9 1.4 1.4 2h3.8c-.6.7-1.2 1.4-1.9 2 3.4 3 7.8 4.9 12.7 4.9 10.4 0 18.8-8.4 18.8-18.8" clip-rule="evenodd"></path>
    <path fill="#0466B5" fill-rule="evenodd" d="M32 46c3.8-3.4 6.2-8.4 6.2-14S35.8 21.5 32 18v28z" clip-rule="evenodd"></path>
    <path fill="#FFF" fill-rule="evenodd" d="M57 36.1c0-.3.3-.6.6-.6s.6.3.6.6-.3.6-.6.6-.6-.3-.6-.6zm.6.5c.3 0 .4-.2.4-.5s-.2-.4-.4-.4c-.3 0-.5.2-.5.4s.3.5.5.5zm0-.3h-.1v-.5h.3l.1.1c0 .1 0 .1-.1.1l.1.2h-.1l-.1-.2h-.1v.3zm0-.3h.1v-.1h-.1v.1z" clip-rule="evenodd"></path>
    <path fill="#D1094B" fill-rule="evenodd" d="M32 18c-.7.6-1.3 1.3-1.9 2h3.8c.5.6 1 1.3 1.4 2h-6.7c-.4.7-.8 1.3-1.1 2h8.9c.3.7.6 1.3.8 2H26.8c-.2.7-.4 1.3-.6 2h11.6c.3 1.3.4 2.6.4 4 0 2.1-.3 4.1-1 6H26.8c.2.7.5 1.3.8 2h8.9c-.3.7-.7 1.4-1.1 2h-6.7c.4.7.9 1.4 1.4 2h3.8c-.6.7-1.2 1.4-1.9 2 3.4 3 7.8 4.9 12.7 4.9h.9c5.8-4.2 9.6-11.1 9.6-18.8 0-7.7-3.8-14.6-9.6-18.8h-.9C39.8 13.1 35.4 15 32 18z" clip-rule="evenodd"></path>
    <path fill="#FFF" fill-rule="evenodd" d="M17 36.7h-2.4l1.4-7.3-3.2 7.3h-2.1l-.4-7.3-1.4 7.3H6.8l1.8-9.6h3.7l.2 6 2.6-6h3.8L17 36.7z" clip-rule="evenodd"></path>
    <path fill="#DCE5E5" fill-rule="evenodd" d="m14.7 32.5 1.4-3.1-1.1 5.8c.1.5.2 1.1.4 1.6H17l1.8-9.6h-3.5c-.4 1.5-.7 3.2-.7 4.9.1.1.1.2.1.4zM43.2 36.6c-.7.2-1.1.3-1.7.3-1.2 0-1.8-.6-1.8-1.7 0-.2 0-.4.1-.7l.1-.8.1-.6 1.1-5.9h2.3l-.3 1.8h1.2l-.3 1.8h-1.2l-.6 3.2c0 .1-.1.3-.1.3 0 .4.3.6.8.6.3 0 .5 0 .6-.1l-.3 1.8zM50.1 29c-.2-.1-.2-.1-.3-.1-.1 0-.2 0-.2-.1h-.3c-.8 0-1.3.3-2 1.3l.2-1.2h-2.1L44 36.7h2.4c.8-4.8 1.2-5.6 2.3-5.6h.3l.3.1.8-2.2zM33.9 31.4c0 1 .6 1.7 1.8 2.1 1 .4 1.1.5 1.1.9 0 .5-.4.7-1.4.7-.7 0-1.4-.1-2.1-.3l-.3 1.8h.1l.4.1h.6c.6.1 1 .1 1.3.1 2.5 0 3.7-.8 3.7-2.6 0-1.1-.5-1.7-1.7-2.2-1-.4-1.1-.5-1.1-.8 0-.4.4-.6 1.2-.6.4 0 1.1 0 1.7.1l.3-1.8c-.6-.1-1.5-.1-2.1-.1-2.6 0-3.5 1.2-3.5 2.6zM24.6 36.7h-1.9v-.8c-.6.6-1.4.9-2.5.9-1.3 0-2.1-.9-2.1-2.1 0-1.9 1.5-3 4.1-3h1c.1-.3.1-.4.1-.5 0-.5-.4-.7-1.5-.7-.7 0-1.4.1-1.9.2l-.3.1h-.2l.3-1.7c1.2-.3 1.9-.4 2.8-.4 2 0 3.1.8 3.1 2.3 0 .4 0 .7-.2 1.6l-.5 2.8-.1.5-.1.4v.3l-.1.1zm-1.7-3.5h-.5c-1.3 0-2 .4-2 1.2 0 .5.3.8.8.8 1 0 1.7-.8 1.7-2zM32.3 36.5c-.8.2-1.6.3-2.4.3-2.6 0-4-1.2-4-3.5 0-2.7 1.7-4.6 4.1-4.6 1.9 0 3.1 1.1 3.1 2.8 0 .6-.1 1.1-.3 1.9h-4.7v.3c0 .9.7 1.4 2 1.4.9 0 1.6-.1 2.4-.5l-.2 1.9zm-1.2-4.6v-.4c0-.6-.4-1-1.1-1-.7 0-1.3.5-1.5 1.4h2.6z" clip-rule="evenodd"></path>
    <path fill="#FFF" fill-rule="evenodd" d="M57.4 33.2c-.4 2.6-2.2 3.7-4.6 3.7-2.6 0-3.7-1.6-3.7-3.6 0-2.7 1.8-4.6 4.6-4.6 2.4 0 3.7 1.6 3.7 3.5v1zm-2.5-1c0-.8-.3-1.5-1.3-1.5-1.2 0-1.9 1.4-1.9 2.7 0 1 .5 1.7 1.3 1.7.5 0 1.6-.7 1.8-1.9.1-.4.1-.7.1-1z" clip-rule="evenodd"></path>
    <path fill="#FFF" fill-rule="evenodd" d="M49.2 34.2c.1-.7.2-1.5.2-2.2v-.2c-.1.5-.2 1-.2 1.6-.1.2-.1.5 0 .8z" clip-rule="evenodd"></path>
  </symbol>
  <symbol xmlns="http://www.w3.org/2000/svg" id="mastercard" viewBox="0 0 164.407 98.986">
    <g fill-rule="evenodd">
      <path fill="#e9b040" d="M82.246 86.156a48.572 48.572 0 0 0 32.966 12.83 49.494 49.494 0 0 0 0-98.986 48.567 48.567 0 0 0-32.966 12.83 49.527 49.527 0 0 0 0 73.326Z"></path>
      <path fill="#e9b040" d="M157.867 77.064a1.523 1.523 0 0 1 1.529-1.529 1.543 1.543 0 0 1 1.613 1.529 1.562 1.562 0 0 1-1.613 1.615 1.544 1.544 0 0 1-1.529-1.615Zm1.529 1.276a1.306 1.306 0 0 0 1.273-1.275 1.234 1.234 0 0 0-1.273-1.189 1.214 1.214 0 0 0-1.189 1.189 1.3 1.3 0 0 0 1.189 1.275Zm-.17-.51h-.34v-1.445h.594a.5.5 0 0 1 .34.086c.17.084.17.17.17.34s-.084.34-.254.34l.34.68h-.426l-.17-.6h-.254v-.255h.34c.084 0 .084-.086.084-.17s0-.086-.084-.17h-.34Z"></path>
      <path fill="#cc2131" d="M98.135 44.268c-.17-1.784-.51-3.483-.85-5.268H67.207a51.824 51.824 0 0 1 1.359-5.185h27.275q-.888-2.683-2.039-5.268H70.691q1.275-2.7 2.8-5.268H90.91a44.705 44.705 0 0 0-3.738-5.183h-9.938a48.87 48.87 0 0 1 5.013-5.268 49.356 49.356 0 1 0-33.052 86.156 48.788 48.788 0 0 0 33.052-12.83 47.105 47.105 0 0 0 4.929-5.184h-9.942a58.588 58.588 0 0 1-3.739-5.268h17.419a39.518 39.518 0 0 0 2.889-5.268H70.691a55.288 55.288 0 0 1-2.125-5.184h27.275a52.957 52.957 0 0 0 1.443-5.268 52.271 52.271 0 0 0 .85-5.268 51.617 51.617 0 0 0 .256-5.184c0-1.781-.085-3.565-.255-5.264Z"></path>
      <path fill="#fff" d="M157.867 61.006a1.543 1.543 0 0 1 1.529-1.613 1.561 1.561 0 0 1 1.613 1.613 1.572 1.572 0 1 1-3.142 0Zm1.529 1.189a1.192 1.192 0 1 0 0-2.378 1.189 1.189 0 0 0 0 2.378Zm-.17-.51h-.34v-1.359h.934c.17.086.17.256.17.426a.457.457 0 0 1-.254.34l.34.594h-.426l-.17-.51h-.254v-.255h.17c.084 0 .17 0 .17-.086.084 0 .084-.084.084-.17a.082.082 0 0 0-.084-.084c0-.086-.086 0-.17 0h-.17Z"></path>
      <path fill="#1b3771" d="M65.508 63.81a15.713 15.713 0 0 1-3.993.68c-2.549 0-4.079-1.615-4.079-4.5a15.268 15.268 0 0 1 .17-1.875l.34-1.953.255-1.615 2.294-13.932h5.1l-.6 3.059h3.231l-.765 5.1h-3.228L62.874 57.1a3.908 3.908 0 0 0-.085.85c0 1.105.51 1.529 1.784 1.529a9.3 9.3 0 0 0 1.614-.17l-.679 4.5Zm16.484-.17a19.99 19.99 0 0 1-5.438.764c-5.778 0-9.092-3.059-9.092-9.09 0-7.053 3.909-12.151 9.346-12.151 4.333 0 7.137 2.889 7.137 7.391a23.429 23.429 0 0 1-.594 5.014H72.726a2.392 2.392 0 0 0-.085.68c0 2.379 1.614 3.568 4.673 3.568a12.811 12.811 0 0 0 5.523-1.273Zm-3.144-12.15v-1.02a2.351 2.351 0 0 0-2.549-2.634c-1.7 0-2.889 1.274-3.4 3.653h5.948ZM24.726 64.064h-5.27l3.059-19.286-6.882 19.286H11.98l-.425-19.2-3.229 19.2H3.143L7.306 39h7.732l.17 15.465L20.391 39h8.5l-4.165 25.064Zm12.831-9.09a4.823 4.823 0 0 0-1.02-.086c-3.059 0-4.588 1.189-4.588 3.059a1.923 1.923 0 0 0 1.954 2.125c2.549 0 3.568-2.125 3.654-5.1Zm4.248 9.09h-4.59l.085-2.123c-1.19 1.613-2.8 2.463-5.608 2.463-2.549 0-4.758-2.293-4.758-5.607a8.992 8.992 0 0 1 .425-2.633c.849-3.145 3.993-5.1 8.836-5.184.6 0 1.529 0 2.379.086a4.521 4.521 0 0 0 .169-1.36c0-1.36-1.1-1.785-3.568-1.785a14.177 14.177 0 0 0-4.418.68l-.765.17-.34.084.765-4.588a19.94 19.94 0 0 1 6.2-1.1c4.588 0 7.052 2.124 7.052 6.032a19.274 19.274 0 0 1-.255 3.994l-1.188 7.303-.17 1.275-.085 1.02-.085.68-.085.593Zm65.849-20.221a10.217 10.217 0 0 1 4.758 1.359l.934-5.438a11.762 11.762 0 0 0-1.359-.51l-2.123-.6a10.457 10.457 0 0 0-2.465-.255c-2.635 0-4.164.085-5.777 1.02a15.969 15.969 0 0 0-3.145 2.719l-.68-.17-5.438 3.823.256-2.124h-5.609l-3.312 20.391h5.354l1.953-10.959s.766-1.531 1.105-2.039a3.1 3.1 0 0 1 2.973-1.275h.426a27.428 27.428 0 0 0-.256 3.908c0 6.627 3.738 10.791 9.516 10.791a17.169 17.169 0 0 0 4.674-.68l.936-5.777a9.6 9.6 0 0 1-4.5 1.359c-3.143 0-5.014-2.379-5.014-6.117 0-5.523 2.8-9.431 6.8-9.431ZM152.769 39l-1.188 7.137a5.5 5.5 0 0 0-4.844-2.889 8.017 8.017 0 0 0-7.053 4.673v-.084l-3.4-2.04.34-2.124h-5.693l-3.229 20.391h5.268l1.785-10.959s1.359-1.531 1.7-2.039a3.32 3.32 0 0 1 2.379-1.275 18.378 18.378 0 0 0-.934 6.033c0 5.1 2.633 8.5 6.541 8.5a6.175 6.175 0 0 0 4.928-2.295l-.254 2.039h5.011l4.078-25.064h-5.439Zm-6.543 20.222c-1.785 0-2.719-1.359-2.719-3.994 0-3.994 1.7-6.882 4.162-6.882 1.869 0 2.8 1.445 2.8 3.994 0 4.078-1.7 6.882-4.248 6.882Zm-24.554-4.248a4.823 4.823 0 0 0-1.02-.086c-3.061 0-4.59 1.189-4.59 3.059a1.924 1.924 0 0 0 1.955 2.125c2.549 0 3.569-2.125 3.655-5.098Zm4.248 9.09h-4.674l.17-2.123c-1.189 1.613-2.8 2.463-5.607 2.463-2.635 0-4.928-2.209-4.928-5.607 0-4.842 3.652-7.816 9.43-7.816a22.039 22.039 0 0 1 2.295.086 5.231 5.231 0 0 0 .256-1.36c0-1.36-1.1-1.785-3.654-1.785a14.582 14.582 0 0 0-4.418.68l-.68.17-.34.084.764-4.588a19.955 19.955 0 0 1 6.2-1.1c4.588 0 6.967 2.124 6.967 6.032a14.634 14.634 0 0 1-.254 3.994l-1.1 7.307-.17 1.275-.17 1.02-.084.68v.592ZM52.933 48.006a25.2 25.2 0 0 1 3.994.34l.765-4.758c-1.53-.17-3.569-.425-4.759-.425-5.947 0-7.9 3.229-7.9 6.967 0 2.465 1.1 4.248 3.993 5.607 2.124 1.02 2.464 1.189 2.464 2.125 0 1.273-1.1 2.039-3.144 2.039a14.225 14.225 0 0 1-4.843-.85l-.6 4.672.084.086 1.02.17a13.386 13.386 0 0 0 1.36.254c1.274.086 2.379.17 3.059.17 5.948 0 8.412-2.293 8.412-6.8 0-2.8-1.36-4.5-3.994-5.691-2.294-1.021-2.549-1.189-2.549-2.125s1.02-1.784 2.634-1.784Z"></path>
      <path fill="#fff" d="m114.789 38.15-.936 5.438a10.2 10.2 0 0 0-4.758-1.359c-3.994 0-6.8 3.908-6.8 9.431 0 3.824 1.869 6.117 5.014 6.117a10.432 10.432 0 0 0 4.5-1.273l-.934 5.691a17.7 17.7 0 0 1-4.674.766c-5.777 0-9.346-4.164-9.346-10.875 0-8.922 4.928-15.21 11.98-15.21a10.451 10.451 0 0 1 2.463.255l2.125.51c.681.255.851.34 1.361.509Zm-17.163 3.739h-.51c-1.783 0-2.8.85-4.418 3.313l.51-3.144h-4.844L85.052 62.45h5.354c1.953-12.49 2.463-14.614 5.012-14.614h.34a21.36 21.36 0 0 1 2.039-5.863l-.171-.084ZM66.868 62.195a11.025 11.025 0 0 1-3.823.68c-2.719 0-4.249-1.529-4.249-4.5a14.009 14.009 0 0 1 .17-1.785l.34-2.039.255-1.613 2.294-13.936h5.271l-.6 3.059h2.719l-.68 5.013h-2.717l-1.444 8.5a3.192 3.192 0 0 0-.085.85c0 1.02.51 1.445 1.784 1.445a3.534 3.534 0 0 0 1.444-.17l-.679 4.5Zm-20.477-13.68c0 2.55 1.189 4.333 3.993 5.693 2.209 1.02 2.549 1.359 2.549 2.209 0 1.275-.935 1.869-3.059 1.869a15.877 15.877 0 0 1-4.758-.764l-.765 4.672.255.086.935.17a5.582 5.582 0 0 0 1.444.17 19.636 19.636 0 0 0 2.889.17c5.607 0 8.242-2.125 8.242-6.8 0-2.805-1.1-4.42-3.738-5.693-2.294-1.016-2.552-1.27-2.552-2.205 0-1.1.935-1.614 2.634-1.614a33.177 33.177 0 0 1 3.824.255l.764-4.673a30.77 30.77 0 0 0-4.673-.425c-5.948 0-8.072 3.143-7.987 6.881Zm109.1 13.935h-5.014l.256-1.955a6.363 6.363 0 0 1-4.93 2.209c-3.908 0-6.457-3.312-6.457-8.41 0-6.8 3.994-12.576 8.666-12.576a6.107 6.107 0 0 1 5.1 2.8l1.189-7.137h5.268l-4.078 25.065Zm-7.818-4.758c2.465 0 4.164-2.889 4.164-6.883 0-2.634-.936-3.994-2.8-3.994-2.379 0-4.162 2.8-4.162 6.8q0 4.08 2.8 4.079Zm-64.492 4.333a17.408 17.408 0 0 1-5.523.85c-5.948 0-9.007-3.143-9.007-9.176 0-6.967 3.909-12.15 9.262-12.15 4.418 0 7.221 2.889 7.221 7.392a20.537 20.537 0 0 1-.68 5.1H73.92a1.667 1.667 0 0 0-.085.6c0 2.379 1.615 3.568 4.673 3.568a11.688 11.688 0 0 0 5.523-1.275l-.85 5.1Zm-2.974-12.15v-1.019a2.351 2.351 0 0 0-2.549-2.634c-1.7 0-2.889 1.275-3.4 3.653h5.948ZM26.084 62.451h-5.268l3.059-19.288-6.882 19.288h-3.654l-.425-19.118-3.228 19.118H4.758l4.168-25.065h7.647l.253 15.549 5.1-15.549h8.327L26.09 62.451Zm13.17-9.092c-.51 0-.765-.084-1.19-.084-2.974 0-4.5 1.1-4.5 3.143a1.792 1.792 0 0 0 1.869 2.039c2.209 0 3.739-2.039 3.824-5.1Zm3.908 9.092h-4.419l.083-2.125a6.622 6.622 0 0 1-5.608 2.465c-2.889 0-4.843-2.209-4.843-5.523 0-5.012 3.4-7.9 9.346-7.9.6 0 1.36.085 2.209.169a4.283 4.283 0 0 0 .17-1.274c0-1.359-.935-1.869-3.4-1.869a17.526 17.526 0 0 0-4.418.51l-.765.255-.51.085.765-4.588a21.368 21.368 0 0 1 6.373-1.02c4.588 0 7.052 2.039 7.052 5.947a25.7 25.7 0 0 1-.425 4.079l-1.19 7.223-.17 1.273-.085 1.02-.085.766-.083.508Zm80.209-9.092c-.6 0-.85-.084-1.189-.084-3.059 0-4.59 1.1-4.59 3.143a1.854 1.854 0 0 0 1.955 2.039c2.125 0 3.738-2.039 3.824-5.1Zm3.908 9.092h-4.418l.084-2.125a6.618 6.618 0 0 1-5.607 2.465c-2.889 0-4.844-2.209-4.844-5.523 0-5.012 3.4-7.9 9.346-7.9.6 0 1.361.085 2.125.169a5.4 5.4 0 0 0 .256-1.274c0-1.359-.936-1.869-3.4-1.869a18.23 18.23 0 0 0-4.5.51l-.68.255-.51.085.764-4.588a21.372 21.372 0 0 1 6.373-1.02c4.588 0 6.967 2.039 6.967 5.947a18.28 18.28 0 0 1-.424 4.079l-1.1 7.223-.17 1.273-.17 1.02-.084.766v.508Zm14.274-20.562h-.51c-1.783 0-2.8.85-4.418 3.313l.51-3.144h-4.844l-3.229 20.392h5.264c1.955-12.49 2.465-14.614 5.014-14.614h.34a21.359 21.359 0 0 1 2.039-5.863l-.17-.084Z"></path>
    </g>
  </symbol>
  <symbol xmlns="http://www.w3.org/2000/svg" version="1.1" xmlns:xlink="http://www.w3.org/1999/xlink" x="0" y="0" xml:space="preserve" viewBox="0 0 64 64" id="orbitcoin">
    <g>
      <g>
        <circle cx="32" cy="32" r="29" fill="#939598" opacity="1" data-original="#939598"></circle>
        <circle cx="32" cy="32" r="25" fill="#808285" opacity="1" data-original="#808285"></circle>
        <path fill="#808285" d="M32.145 3a29.023 29.023 0 0 1 .69 4.017A25 25 0 1 1 7.924 38.729 29.35 29.35 0 0 1 4 39h-.145a29 29 0 1 0 28.29-36z" opacity="1" data-original="#808285"></path>
        <path fill="#6d6e71" d="M32 57a25 25 0 0 0 .835-49.979A29.013 29.013 0 0 1 33 10 29 29 0 0 1 7.924 38.729 25 25 0 0 0 32 57z" opacity="1" data-original="#6d6e71"></path>
        <g fill="#f1f2f2">
          <path d="M26.343 27.343a8 8 0 0 0 11.314 0L44.5 20.5a2.121 2.121 0 0 0-3-3l-6.672 6.672a4 4 0 0 1-5.656 0L22.5 17.5a2.121 2.121 0 0 0-3 3zM22.5 46.5l6.672-6.672a4 4 0 0 1 5.656 0L41.5 46.5a2.121 2.121 0 0 0 3-3l-6.843-6.843a8 8 0 0 0-11.314 0L19.5 43.5a2.121 2.121 0 0 0 3 3z" fill="#f1f2f2" opacity="1" data-original="#f1f2f2"></path>
        </g>
      </g>
    </g>
  </symbol>
  <symbol xmlns="http://www.w3.org/2000/svg" id="visa" viewBox="0 0 141.732 141.732">
    <g fill="#2566af">
      <path d="M62.935 89.571h-9.733l6.083-37.384h9.734zM45.014 52.187L35.735 77.9l-1.098-5.537.001.002-3.275-16.812s-.396-3.366-4.617-3.366h-15.34l-.18.633s4.691.976 10.181 4.273l8.456 32.479h10.141l15.485-37.385H45.014zM121.569 89.571h8.937l-7.792-37.385h-7.824c-3.613 0-4.493 2.786-4.493 2.786L95.881 89.571h10.146l2.029-5.553h12.373l1.14 5.553zm-10.71-13.224l5.114-13.99 2.877 13.99h-7.991zM96.642 61.177l1.389-8.028s-4.286-1.63-8.754-1.63c-4.83 0-16.3 2.111-16.3 12.376 0 9.658 13.462 9.778 13.462 14.851s-12.075 4.164-16.06.965l-1.447 8.394s4.346 2.111 10.986 2.111c6.642 0 16.662-3.439 16.662-12.799 0-9.72-13.583-10.625-13.583-14.851.001-4.227 9.48-3.684 13.645-1.389z"></path>
    </g>
    <path fill="#e6a540" d="M34.638 72.364l-3.275-16.812s-.396-3.366-4.617-3.366h-15.34l-.18.633s7.373 1.528 14.445 7.253c6.762 5.472 8.967 12.292 8.967 12.292z"></path>
    <path fill="none" d="M0 0h141.732v141.732H0z"></path>
  </symbol>
  <symbol xmlns="http://www.w3.org/2000/svg" version="1.1" xmlns:xlink="http://www.w3.org/1999/xlink" x="0" y="0" xml:space="preserve" viewBox="0 0 24 24" id="file">
    <g>
      <path fill="#0053a0" fill-rule="evenodd" d="M6 0a3 3 0 0 0-3 3v18a3 3 0 0 0 3 3h12a3 3 0 0 0 3-3V7.557a1.5 1.5 0 0 0-.361-.976L15.449.524A1.5 1.5 0 0 0 14.31 0zm7 5H6v1h7zM6 8h11v1H6zm0 3h10v1H6zm0 3h12v1H6zm9 3H6v1h9z" clip-rule="evenodd" opacity="1" data-original="#0053a0"></path>
    </g>
  </symbol>
  <symbol xmlns="http://www.w3.org/2000/svg" version="1.1" xmlns:xlink="http://www.w3.org/1999/xlink" x="0" y="0" xml:space="preserve" viewBox="0 0 480 480" id="menu">
    <g>
      <path d="M407.5 282.5h-335C49 282.5 30 263.5 30 240s19-42.5 42.5-42.5h335c23.5 0 42.5 19 42.5 42.5s-19 42.5-42.5 42.5zM407.5 419.5h-335C49 419.5 30 400.5 30 377s19-42.5 42.5-42.5h335c23.5 0 42.5 19 42.5 42.5s-19 42.5-42.5 42.5zM407.8 145.5H72.2c-23.3 0-42.2-18.9-42.2-42.2v-.5c0-23.3 18.9-42.2 42.2-42.2h335.5c23.3 0 42.2 18.9 42.2 42.2v.5c.1 23.3-18.8 42.2-42.1 42.2z" fill="#000000" opacity="1" data-original="#000000"></path>
    </g>
  </symbol>
  <symbol xmlns="http://www.w3.org/2000/svg" version="1.1" xmlns:xlink="http://www.w3.org/1999/xlink" x="0" y="0" xml:space="preserve" viewBox="0 0 41.756 41.756" id="close">
    <g>
      <path d="M27.948 20.878 40.291 8.536a5 5 0 1 0-7.07-7.071L20.878 13.809 8.535 1.465a5 5 0 0 0-7.07 7.071l12.342 12.342L1.465 33.22a5 5 0 1 0 7.07 7.071l12.343-12.342 12.343 12.343c.976.977 2.256 1.464 3.535 1.464s2.56-.487 3.535-1.464a5 5 0 0 0 0-7.071L27.948 20.878z" fill="#000000" opacity="1" data-original="#000000"></path>
    </g>
  </symbol>
  <symbol xmlns="http://www.w3.org/2000/svg" version="1.1" xmlns:xlink="http://www.w3.org/1999/xlink" x="0" y="0" xml:space="preserve" viewBox="0 0 515.283 515.283" id="external">
    <g>
      <path d="M372.149 515.283H85.881c-22.941 0-44.507-8.934-60.727-25.155S.001 452.34.001 429.402V143.134c0-22.94 8.934-44.506 25.154-60.726s37.786-25.154 60.727-25.154h114.507c15.811 0 28.627 12.816 28.627 28.627s-12.816 28.627-28.627 28.627H85.881c-7.647 0-14.835 2.978-20.241 8.384s-8.385 12.595-8.385 20.242v286.268c0 7.647 2.978 14.835 8.385 20.243 5.406 5.405 12.594 8.384 20.241 8.384h286.267c7.647 0 14.835-2.978 20.242-8.386 5.406-5.406 8.384-12.595 8.384-20.242V314.895c0-15.811 12.817-28.626 28.628-28.626s28.628 12.816 28.628 28.626v114.507c0 22.94-8.934 44.505-25.155 60.727-16.221 16.22-37.788 25.154-60.726 25.154zm-171.76-171.762c-7.327 0-14.653-2.794-20.242-8.384-11.179-11.179-11.179-29.306 0-40.485L417.544 57.254H314.896c-15.811 0-28.626-12.816-28.626-28.627S299.085 0 314.896 0h171.761a28.542 28.542 0 0 1 19.997 8.144l.002.002.056.056.017.016.044.044.029.029.032.032.062.062.062.062.031.032.029.029a.62.62 0 0 1 .06.061l.056.057.002.002a28.55 28.55 0 0 1 8.144 19.998v171.761c0 15.811-12.817 28.627-28.628 28.627s-28.626-12.816-28.626-28.627V97.739l-237.4 237.399c-5.585 5.59-12.911 8.383-20.237 8.383z" fill="#000000" opacity="1" data-original="#000000"></path>
    </g>
  </symbol>
  <symbol xmlns="http://www.w3.org/2000/svg" version="1.1" xmlns:xlink="http://www.w3.org/1999/xlink" x="0" y="0" xml:space="preserve" viewBox="0 0 512 512" id="check-calc">
    <g>
      <path fill-rule="evenodd" d="m175.471 392.682-28.979-28.977-75.472-75.474c-11.631-11.633-11.631-30.608 0-42.242l7.859-7.856c11.631-11.633 30.607-11.633 42.24 0l54.352 54.35c11.633 11.633 30.609 11.634 42.242 0l173.166-173.165c11.633-11.634 30.609-11.634 42.242 0l7.857 7.856c11.633 11.633 11.635 30.609 0 42.242L246.691 363.705l-28.979 28.977c-11.632 11.632-30.608 11.632-42.241 0z" clip-rule="evenodd" fill="currentColor" opacity="1" data-original="currentColor"></path>
    </g>
  </symbol>
  <symbol fill="none" xmlns="http://www.w3.org/2000/svg" viewBox="0 0 470 293" id="logo">
    <path d="M102.45 107.76L47.9499 107.75C47.8754 107.75 47.8027 107.773 47.7418 107.816C47.6809 107.859 47.6348 107.92 47.6099 107.99L34.9499 144.44C34.9251 144.51 34.879 144.571 34.8181 144.614C34.7572 144.657 34.6845 144.68 34.6099 144.68L5.14995 144.69C5.09316 144.689 5.03752 144.674 4.98759 144.647C4.93766 144.619 4.89485 144.581 4.86266 144.534C4.83048 144.487 4.80983 144.434 4.8024 144.377C4.79498 144.321 4.80099 144.264 4.81995 144.21L57.2299 0.51001C57.2548 0.439727 57.3009 0.37889 57.3618 0.3359C57.4227 0.29291 57.4954 0.269883 57.5699 0.270005L92.7199 0.26001C92.7945 0.259888 92.8672 0.282908 92.9281 0.325898C92.989 0.368887 93.0351 0.429725 93.0599 0.500008L145.27 144.21C145.289 144.264 145.295 144.321 145.288 144.377C145.28 144.434 145.259 144.487 145.227 144.534C145.195 144.581 145.152 144.619 145.102 144.647C145.052 144.674 144.997 144.689 144.94 144.69L115.79 144.68C115.715 144.68 115.643 144.657 115.582 144.614C115.521 144.571 115.475 144.51 115.45 144.44L102.79 108C102.765 107.93 102.719 107.869 102.658 107.826C102.597 107.783 102.524 107.76 102.45 107.76ZM75.2699 23.53L54.7299 84.52C54.6233 84.8467 54.7399 85.01 55.0799 85.01H95.4399C95.8666 85.01 96.0066 84.81 95.8599 84.41C88.6666 64.4433 81.8466 44.15 75.3999 23.53C75.3533 23.3967 75.3099 23.3967 75.2699 23.53Z" fill="black"></path>
    <path d="M295.05 53.25H282.25C281.917 53.25 281.75 53.0833 281.75 52.75V34.26C281.75 33.9333 281.913 33.77 282.24 33.77H296.7C297.047 33.77 297.277 33.6067 297.39 33.28L306.04 8.26C306.16 7.92 306.397 7.75 306.75 7.75H323.75C324.083 7.75 324.25 7.91667 324.25 8.25V33.26C324.25 33.5933 324.42 33.76 324.76 33.76L345.01 33.77C345.074 33.77 345.135 33.7953 345.18 33.8403C345.225 33.8853 345.25 33.9463 345.25 34.01V52.75C345.25 53.0833 345.083 53.25 344.75 53.25H324.72C324.601 53.25 324.486 53.2974 324.402 53.3818C324.317 53.4662 324.27 53.5806 324.27 53.7C324.217 75.34 324.233 95.1233 324.32 113.05C324.333 115.937 325.02 118.667 326.38 121.24C330.07 128.2 339.27 127.04 345.95 125.27C346.015 125.253 346.082 125.252 346.147 125.265C346.213 125.278 346.274 125.306 346.327 125.346C346.38 125.387 346.423 125.439 346.453 125.498C346.483 125.558 346.499 125.623 346.5 125.69V142.49C346.5 142.85 346.323 143.087 345.97 143.2C338.73 145.447 330.65 146.543 321.73 146.49C304.17 146.39 295.76 135.69 295.76 118.82C295.76 96.7533 295.76 75.13 295.76 53.95C295.76 53.4833 295.523 53.25 295.05 53.25Z" fill="black"></path>
    <path d="M421.18 32.12C444.2 34.15 461.3 46.38 466.81 69.43C470.31 84.06 470.09 102.11 463.97 116.45C457.05 132.67 442.91 142.85 425.26 145.68C402.18 149.37 378.64 143.75 365.77 123.16C357.5 109.94 355.94 92.21 358.18 76.7C359.6 66.91 363.3 57.45 369.56 49.88C382.23 34.56 401.74 30.4 421.18 32.12ZM411.34 51.67C398.82 52.68 391.54 61.06 389.15 72.99C385.55 90.96 385.62 127.95 413.28 126.96C429.82 126.37 436.69 114.19 438.26 99.42C440.37 79.49 438.72 49.48 411.34 51.67Z" fill="black"></path>
    <path d="M236.53 123.52C236.47 122.493 236.223 122.447 235.79 123.38C230.96 133.86 223.25 142.23 211.83 145.24C205.11 147.013 198.197 147.193 191.09 145.78C181.183 143.807 173.92 138.463 169.3 129.75C164.75 121.16 163.92 111.29 163.95 101.3C164.03 78.6134 164.037 56.2933 163.97 34.34C163.97 34.1862 164.031 34.0387 164.14 33.9299C164.249 33.8211 164.396 33.76 164.55 33.76L192.47 33.77C192.509 33.77 192.548 33.7778 192.585 33.7928C192.621 33.8079 192.654 33.83 192.682 33.8579C192.71 33.8857 192.732 33.9188 192.747 33.9552C192.762 33.9916 192.77 34.0306 192.77 34.07C192.763 54.51 192.77 74.9867 192.79 95.5C192.8 105.77 194.52 121.1 206.65 124.33C226.15 129.52 235.63 110.36 235.69 94.28C235.763 74.92 235.773 54.9367 235.72 34.33C235.72 33.9567 235.907 33.77 236.28 33.77H264.21C264.29 33.77 264.366 33.8016 264.422 33.8579C264.478 33.9141 264.51 33.9905 264.51 34.07C264.49 64.1167 264.497 93.9767 264.53 123.65C264.54 130.47 264.83 137.21 265.3 144.06C265.327 144.473 265.133 144.68 264.72 144.68L238.23 144.7C238.103 144.7 237.982 144.651 237.89 144.564C237.799 144.476 237.745 144.356 237.74 144.23L236.53 123.52Z" fill="black"></path>
    <path d="M9.27002 232.35C6.57002 232.38 -1.40998 233.56 0.260023 227.9C1.88002 222.38 3.47002 216.87 10.65 217.22C12.0234 217.287 13.3667 217.303 14.68 217.27C15.04 217.257 15.2767 217.08 15.39 216.74C19.53 204.493 23.2367 194.283 26.51 186.11C27.8434 182.797 30.4634 180.153 34.37 178.18C43.6 173.51 52.59 172.51 63.47 172.08C73.0634 171.707 82.7567 171.783 92.55 172.31C102.9 172.87 120.93 174.93 125.27 186.24C129.057 196.107 132.77 206.253 136.41 216.68C136.55 217.067 136.827 217.263 137.24 217.27C142 217.33 146.75 216.47 149.24 221.31C150.31 223.4 152.18 227.58 151.63 229.89C150.81 233.36 145.56 232.36 142.84 232.35C142.4 232.35 142.263 232.553 142.43 232.96C143.617 235.92 144.217 238.663 144.23 241.19C144.29 257.397 144.293 272.877 144.24 287.63C144.22 290.97 141.54 293 138.36 293C131.96 293 125.743 292.993 119.71 292.98C115.78 292.97 113.75 290.22 113.88 286.44C113.973 283.627 113.983 280.96 113.91 278.44C113.903 278.04 113.7 277.84 113.3 277.84H38.35C38.2775 277.84 38.2077 277.869 38.1555 277.921C38.1033 277.974 38.0726 278.045 38.07 278.12C38.0034 280.8 38.0067 283.693 38.08 286.8C38.15 290.27 36.12 292.94 32.51 292.96C26.11 293.013 19.79 293.007 13.55 292.94C9.80002 292.9 7.83002 290.37 7.83002 286.93C7.84336 270.043 7.84669 255.087 7.84002 242.06C7.84002 238.9 8.47669 235.903 9.75002 233.07C9.96336 232.583 9.80336 232.343 9.27002 232.35ZM39.11 187.32C34.21 197.67 29.51 207.84 26.88 218.94C26.7867 219.313 26.9334 219.513 27.32 219.54C59.37 221.79 92.39 222.34 124.49 219.53C125.057 219.483 125.267 219.183 125.12 218.63C122.387 208.663 118.14 198.443 112.38 187.97C110.65 184.82 100.07 183.97 96.75 183.74C79.0167 182.527 62.4967 182.713 47.19 184.3C44.8767 184.54 42.6567 185.093 40.53 185.96C39.9058 186.217 39.3991 186.702 39.11 187.32ZM35.81 243.45C31.03 241.2 22.7 237.34 17.65 239.62C14.88 240.87 15.38 246.35 15.49 249.12C15.57 251.24 17.3 252.4 19.35 252.01C22.76 251.36 29.84 250.15 32.56 251.88C33.8934 252.727 35.1767 253.623 36.41 254.57C38.53 256.19 41.88 255.63 44 254.53C47.19 252.88 45.9 248.82 43.99 246.76C41.97 244.59 38.46 244.71 35.81 243.45ZM116.45 243.38C114.47 244.29 112.51 244.83 110.86 246.37C109.227 247.89 107.647 249.42 106.12 250.96C105.925 251.158 105.777 251.398 105.688 251.661C105.6 251.924 105.572 252.205 105.608 252.48C105.643 252.756 105.741 253.02 105.894 253.252C106.047 253.484 106.251 253.678 106.49 253.82C108.58 255.07 112.83 256.3 115.19 254.69C117.4 253.17 119.32 251.36 122.2 251.33C125.733 251.303 129.187 251.523 132.56 251.99C135.073 252.337 136.433 251.357 136.64 249.05C136.87 246.46 137.32 240.59 134.06 239.41C129.12 237.61 121.77 240.92 116.45 243.38Z" fill="black"></path>
    <path d="M260.62 188.67H246.12C245.916 188.67 245.75 188.836 245.75 189.04V268.62C245.75 268.824 245.916 268.99 246.12 268.99H260.62C260.824 268.99 260.99 268.824 260.99 268.62V189.04C260.99 188.836 260.824 188.67 260.62 188.67Z" fill="black"></path>
    <path d="M183.24 266.71C165.05 259.27 160.76 238.98 163.3 221.48C165.14 208.75 172.24 198.07 184.74 194.06C193.853 191.14 203.2 190.82 212.78 193.1C223.14 195.567 230.183 202.02 233.91 212.46C233.925 212.504 233.932 212.551 233.928 212.597C233.925 212.643 233.912 212.689 233.891 212.73C233.869 212.771 233.839 212.807 233.803 212.837C233.767 212.866 233.725 212.888 233.68 212.9L220.44 216.52C220.311 216.556 220.174 216.542 220.055 216.48C219.937 216.419 219.846 216.315 219.8 216.19C216.2 206.01 205.16 202.83 195.06 204.74C180.07 207.58 177.63 223.66 179 236.21C180.08 246.1 184.93 254.79 195.22 256.82C207.593 259.267 216.193 254.777 221.02 243.35C221.113 243.137 221.27 243.07 221.49 243.15L234.32 247.99C234.793 248.17 234.93 248.493 234.73 248.96C229.257 261.52 219.64 268.45 205.88 269.75C197.64 270.53 190.093 269.517 183.24 266.71Z" fill="black"></path>
    <path d="M370 232.79C370.12 228.25 369.79 220.87 364.06 219.61C358.19 218.33 353.67 220.38 352.97 226.82C352.923 227.26 352.68 227.47 352.24 227.45L337.43 226.74C337.13 226.727 337.007 226.57 337.06 226.27C339.75 212.03 353.12 208.4 365.87 209.56C377.44 210.62 384.95 217.62 385.13 229.78C385.23 236.987 385.267 244.44 385.24 252.14C385.21 257.64 386.47 261.56 393.12 259.97C393.149 259.962 393.18 259.962 393.209 259.968C393.238 259.975 393.266 259.988 393.29 260.007C393.314 260.027 393.334 260.051 393.348 260.079C393.362 260.108 393.369 260.139 393.37 260.17V267.96C393.37 268.032 393.345 268.103 393.3 268.161C393.255 268.218 393.192 268.26 393.12 268.28C388.62 269.613 384.343 269.92 380.29 269.2C374.81 268.23 372.88 264.18 371.99 259.13C371.863 258.437 371.607 258.383 371.22 258.97C367.85 264.16 364.14 267.82 358 269.29C343.2 272.82 331.85 263.81 334.7 248.2C337.67 231.93 357.28 233.6 369.28 233.5C369.753 233.5 369.993 233.263 370 232.79ZM357.96 259.3C366.62 258.62 370.46 250.33 369.98 242.44C369.96 242.093 369.777 241.92 369.43 241.92C365.577 241.86 361.92 241.997 358.46 242.33C352.333 242.91 349.613 246.347 350.3 252.64C350.82 257.44 353.373 259.66 357.96 259.3Z" fill="black"></path>
    <path d="M414.53 220.98C414.583 221.953 414.82 222 415.24 221.12C419.253 212.647 426.18 208.77 436.02 209.49C448.51 210.41 452.73 220.59 452.8 231.61C452.873 243.817 452.883 256.11 452.83 268.49C452.823 268.83 452.653 269 452.32 269H438.27C437.917 269 437.74 268.82 437.74 268.46C437.7 258.307 437.703 248.203 437.75 238.15C437.79 231.37 437.19 222.47 429.35 220.94C420.09 219.13 415.11 228.5 415.05 236.2C414.943 247.8 414.927 258.493 415 268.28C415.007 268.76 414.77 269 414.29 269H400.29C399.883 269 399.683 268.797 399.69 268.39C399.857 253.17 399.833 236.867 399.62 219.48C399.587 216.647 399.507 213.847 399.38 211.08C399.36 210.653 399.56 210.44 399.98 210.44H413.3C413.713 210.44 413.933 210.643 413.96 211.05L414.53 220.98Z" fill="black"></path>
    <path d="M289.35 242.89C289.3 252.26 292.95 261.75 304.53 259.49C307.903 258.83 310.17 256.84 311.33 253.52C311.477 253.113 311.767 252.927 312.2 252.96L325.49 254.11C325.544 254.114 325.596 254.13 325.642 254.158C325.688 254.186 325.727 254.225 325.756 254.271C325.784 254.317 325.801 254.369 325.805 254.422C325.809 254.476 325.801 254.53 325.78 254.58C320.6 267.34 308.62 271.41 295.83 269.69C276.94 267.15 272 250.53 273.71 233.95C275.42 217.3 286.58 208.6 303.1 209.5C321.31 210.5 326.9 226.32 326.82 242.06C326.82 242.453 326.623 242.65 326.23 242.65H289.59C289.526 242.65 289.465 242.675 289.42 242.72C289.375 242.765 289.35 242.826 289.35 242.89ZM289.77 233.06L311.73 233.1C311.791 233.1 311.85 233.076 311.893 233.033C311.936 232.989 311.96 232.931 311.96 232.87V232.09C311.963 230.371 311.699 228.667 311.182 227.078C310.665 225.488 309.906 224.044 308.947 222.826C307.989 221.609 306.85 220.642 305.596 219.982C304.343 219.323 302.998 218.982 301.64 218.98H299.9C297.158 218.976 294.527 220.351 292.584 222.802C290.641 225.253 289.546 228.579 289.54 232.05V232.83C289.54 232.891 289.564 232.949 289.607 232.993C289.651 233.036 289.709 233.06 289.77 233.06Z" fill="black"></path>
  </symbol>
</svg>