<svg width="0" height="0" class="hidden">
  <symbol fill="none" xmlns="http://www.w3.org/2000/svg" viewBox="0 0 23 20" id="facebook">
    <path d="M16.9519 1.63074H14.1952C12.9767 1.63074 11.808 2.06025 10.9464 2.82478C10.0848 3.58931 9.60072 4.62623 9.60072 5.70744V8.15346H6.84402V11.4148H9.60072V17.9376H13.2763V11.4148H16.033L16.9519 8.15346H13.2763V5.70744C13.2763 5.4912 13.3731 5.28381 13.5454 5.13091C13.7178 4.978 13.9515 4.8921 14.1952 4.8921H16.9519V1.63074Z" stroke="black" stroke-width="2" stroke-linecap="round" stroke-linejoin="round"></path>
  </symbol>
  <symbol fill="none" xmlns="http://www.w3.org/2000/svg" viewBox="0 0 28 48" id="phone">
    <path fill-rule="evenodd" clip-rule="evenodd" d="M3.81172 45.8108C3.22614 45.6128 2.68933 45.2925 2.23687 44.8714C1.78441 44.4502 1.42663 43.9376 1.18723 43.3677C0.94784 42.7978 0.832304 42.1835 0.848278 41.5655C0.864254 40.9476 1.01138 40.34 1.2799 39.7832L4.4532 33.2027C5.03559 31.9962 6.14113 31.1248 7.45027 30.8389L12.9632 29.6334C13.2487 29.5709 13.5132 29.4356 13.7309 29.2406C13.9487 29.0457 14.1123 28.7978 14.206 28.521L16.9828 20.2899C17.0762 20.0125 17.0962 19.7156 17.0408 19.4282C16.9854 19.1408 16.8566 18.8726 16.6667 18.6497L13.0117 14.3533C12.5832 13.8497 12.2747 13.2552 12.1097 12.6149C11.9447 11.9745 11.9274 11.305 12.0591 10.657L13.5183 3.50008C14.043 0.927126 16.7028 -0.602804 19.1863 0.236877L22.6502 1.40545C25.1292 2.24176 27.0849 4.35857 27.4161 7.07102C28.2651 14.0128 27.5404 21.0566 25.2956 27.68C23.0699 34.3091 19.3804 40.3521 14.5007 45.3609C12.5952 47.315 9.75469 47.8157 7.27566 46.9794L3.81172 45.8108Z" fill="black"></path>
  </symbol>
  <symbol fill="none" xmlns="http://www.w3.org/2000/svg" viewBox="0 0 15 14" id="search">
    <g clip-path="url(#clip0_1_368)">
      <path d="M7.07666 11.306C10.1508 11.306 12.6429 9.05621 12.6429 6.28102C12.6429 3.50584 10.1508 1.2561 7.07666 1.2561C4.00255 1.2561 1.5105 3.50584 1.5105 6.28102C1.5105 9.05621 4.00255 11.306 7.07666 11.306Z" stroke="black" stroke-linecap="round" stroke-linejoin="round"></path>
      <path d="M14.0344 12.5622L11.0078 9.82983" stroke="black" stroke-linecap="round" stroke-linejoin="round"></path>
    </g>
    <defs>
      <clipPath id="clip0_1_368">
        <rect width="14.4506" height="13.0455" fill="white" transform="translate(0.547119 0.386353)"></rect>
      </clipPath>
    </defs>
  </symbol>
  <symbol fill="none" xmlns="http://www.w3.org/2000/svg" viewBox="0 0 23 20" id="telegram">
    <g clip-path="url(#clip0_1_240)">
      <path d="M20.4694 0.00200357C20.2019 0.0215776 19.9392 0.0846958 19.6919 0.188896H19.6885C19.451 0.283599 18.3218 0.761305 16.6049 1.48541L10.4527 4.091C6.03818 5.95992 1.69864 7.80035 1.69864 7.80035L1.75032 7.78024C1.75032 7.78024 1.45112 7.87913 1.13859 8.09452C0.945513 8.21808 0.77937 8.37972 0.650214 8.56972C0.496868 8.79599 0.373524 9.14212 0.419361 9.49999C0.494367 10.1051 0.884401 10.468 1.16443 10.6683C1.44778 10.8711 1.71781 10.9658 1.71781 10.9658H1.72447L5.794 12.3444C5.97651 12.9336 7.0341 16.4301 7.2883 17.2355C7.4383 17.7165 7.58415 18.0175 7.76666 18.2471C7.85501 18.3643 7.95835 18.4625 8.08252 18.5412C8.14709 18.5789 8.21592 18.6088 8.28754 18.6301L8.24587 18.62C8.25838 18.6233 8.26838 18.6333 8.27754 18.6367C8.31088 18.646 8.33339 18.6493 8.37589 18.656C9.02011 18.8521 9.53765 18.4498 9.53765 18.4498L9.56682 18.4264L11.9695 16.2265L15.9966 19.3332L16.0882 19.3726C16.9275 19.743 17.7775 19.5369 18.2267 19.1732C18.6793 18.8069 18.8551 18.3384 18.8551 18.3384L18.8843 18.263L21.9962 2.23129C22.0845 1.83573 22.1071 1.46529 22.0095 1.10576C21.909 0.741883 21.6768 0.428928 21.3587 0.228285C21.0915 0.0649559 20.7817 -0.0138793 20.4694 0.00200357ZM20.3852 1.72007C20.3819 1.77286 20.392 1.76701 20.3686 1.86841V1.87763L17.2858 17.7425C17.2724 17.7652 17.25 17.8146 17.1883 17.8641C17.1233 17.916 17.0716 17.9487 16.8008 17.8406L11.8754 14.0432L8.9001 16.7703L9.52515 12.7559L17.5725 5.2132C17.9042 4.90311 17.7933 4.83774 17.7933 4.83774C17.8167 4.45724 17.2924 4.72626 17.2924 4.72626L7.14495 11.0479L7.14161 11.0312L2.27786 9.38433V9.38097L2.26536 9.37846C2.27388 9.37561 2.28223 9.37226 2.29035 9.3684L2.31703 9.355L2.34286 9.34578C2.34286 9.34578 6.68574 7.50535 11.1003 5.63643C13.3105 4.70029 15.5374 3.75744 17.25 3.02999C18.2656 2.60006 19.2824 2.17264 20.3003 1.74773C20.3686 1.7209 20.3361 1.72007 20.3852 1.72007Z" fill="black"></path>
    </g>
    <defs>
      <clipPath id="clip0_1_240">
        <rect width="22.0535" height="19.5682" fill="white" transform="translate(0.409668)"></rect>
      </clipPath>
    </defs>
  </symbol>
  <symbol fill="none" xmlns="http://www.w3.org/2000/svg" viewBox="0 0 15 14" id="user">
    <g clip-path="url(#clip0_1_371)">
      <path d="M13.0206 12.4939V11.2377C13.0206 10.5714 12.7288 9.9323 12.2096 9.4611C11.6903 8.98992 10.986 8.72522 10.2517 8.72522H4.71392C3.97957 8.72522 3.27529 8.98992 2.75603 9.4611C2.23675 9.9323 1.94504 10.5714 1.94504 11.2377V12.4939" stroke="black" stroke-linecap="round" stroke-linejoin="round"></path>
      <path d="M7.4828 6.21278C9.01201 6.21278 10.2517 5.08792 10.2517 3.70033C10.2517 2.31273 9.01201 1.18787 7.4828 1.18787C5.9536 1.18787 4.71393 2.31273 4.71393 3.70033C4.71393 5.08792 5.9536 6.21278 7.4828 6.21278Z" stroke="black" stroke-linecap="round" stroke-linejoin="round"></path>
    </g>
    <defs>
      <clipPath id="clip0_1_371">
        <rect width="13.4184" height="13.0455" fill="white" transform="translate(0.986572 0.318115)"></rect>
      </clipPath>
    </defs>
  </symbol>
  <symbol fill="none" xmlns="http://www.w3.org/2000/svg" viewBox="0 0 23 20" id="viber">
    <g clip-path="url(#clip0_1_236)">
      <path d="M9.91587 0.00284775C8.14585 0.0218068 4.34046 0.279894 2.21203 2.01251C0.628804 3.40446 0.0760185 5.46243 0.0112283 8.00722C-0.0425339 10.5428 -0.107324 15.3047 5.06555 16.6011V18.5759C5.06555 18.5759 5.03316 19.3661 5.62178 19.5281C6.34689 19.7319 6.75975 19.124 7.44901 18.4708L8.73448 17.181C12.2738 17.442 14.9846 16.8402 15.2969 16.751C16.0151 16.5474 20.0603 16.0887 20.7214 11.3263C21.3996 6.40794 20.3911 3.30906 18.5708 1.90731H18.5598C18.0105 1.45842 15.8028 0.0309805 10.8705 0.0150794C10.8705 0.0150794 10.5045 -0.00632597 9.91587 0.00284775ZM9.97652 1.38564C10.479 1.38257 10.7843 1.40154 10.7843 1.40154C14.9592 1.41132 16.9518 2.52623 17.4219 2.90174C18.9549 4.06742 19.7447 6.86111 19.1664 10.9673C18.617 14.9487 15.3362 15.2007 14.729 15.3725C14.4705 15.4458 12.0829 15.9682 9.07497 15.7964C9.07497 15.7964 6.83488 18.1949 6.1346 18.8126C6.02363 18.9209 5.89404 18.9527 5.81133 18.9368C5.69278 18.9111 5.65694 18.7809 5.66383 18.6023L5.68519 15.3248C1.29807 14.2484 1.55654 10.1869 1.60341 8.06533C1.65718 5.94374 2.10588 4.20809 3.44166 3.03262C5.23993 1.5899 8.47256 1.39542 9.97652 1.38564ZM10.3074 3.50659C10.2713 3.50628 10.2354 3.51229 10.202 3.52431C10.1685 3.53634 10.138 3.55412 10.1123 3.57662C10.0866 3.59914 10.0662 3.62595 10.0523 3.65549C10.0383 3.68503 10.0311 3.71674 10.031 3.74878C10.031 3.88577 10.1564 3.99402 10.3074 3.99402C10.9908 3.98249 11.67 4.09112 12.3058 4.31365C12.9417 4.53618 13.5216 4.86821 14.0121 5.29058C15.0136 6.15352 15.5016 7.31307 15.5202 8.82919C15.5202 8.96313 15.6423 9.07443 15.7967 9.07443V9.06465C15.8694 9.0648 15.9393 9.03944 15.991 8.99407C16.0428 8.94871 16.0723 8.88702 16.0731 8.82246C16.1064 8.10883 15.976 7.39663 15.6896 6.72912C15.4032 6.06161 14.9669 5.45274 14.4071 4.93953C13.316 3.99341 11.9333 3.50659 10.3074 3.50659ZM6.67428 4.06742C6.4792 4.04212 6.28021 4.07687 6.11048 4.16588H6.09599C5.70193 4.37084 5.34692 4.6299 5.04419 4.93341C4.79262 5.1915 4.65613 5.45265 4.62029 5.70401C4.59893 5.85385 4.61341 6.00369 4.66372 6.1468L4.68164 6.15658C4.96493 6.89537 5.33506 7.60602 5.78721 8.2751C6.36965 9.21506 7.08643 10.0844 7.91978 10.8615L7.94459 10.8933L7.98388 10.919L8.00868 10.9446L8.03763 10.9667C8.9166 11.7083 9.8987 12.3472 10.9601 12.8681C12.1732 13.4539 12.9093 13.731 13.3511 13.8459V13.8521C13.4807 13.887 13.5986 13.9028 13.7171 13.9028C14.0936 13.8784 14.4501 13.7427 14.7297 13.5176C15.0702 13.2488 15.3588 12.9326 15.5844 12.5812V12.5751C15.7959 12.2216 15.7242 11.8871 15.4189 11.6608C14.8073 11.1865 14.1461 10.7653 13.4442 10.4028C12.9741 10.1765 12.4964 10.3135 12.3028 10.5428L11.8899 11.0046C11.6783 11.2339 11.2937 11.2021 11.2937 11.2021L11.2827 11.2082C8.41466 10.5581 7.64959 7.98154 7.64959 7.98154C7.64959 7.98154 7.61375 7.6311 7.87911 7.45252L8.39604 7.08312C8.6435 6.90454 8.81581 6.48132 8.55045 6.06362C8.14475 5.4399 7.67103 4.85303 7.13608 4.31143C7.01914 4.18376 6.85508 4.09689 6.6729 4.06619L6.67428 4.06742ZM10.7843 4.79397C10.4183 4.79397 10.4183 5.28447 10.7878 5.28447C11.2429 5.29101 11.6921 5.37708 12.1097 5.53774C12.5273 5.6984 12.9051 5.9305 13.2215 6.22079C13.5102 6.50336 13.7321 6.83444 13.8739 7.19445C14.0157 7.55447 14.0747 7.93609 14.0473 8.31669C14.0485 8.38109 14.0782 8.44251 14.1298 8.48778C14.1815 8.53303 14.2511 8.55856 14.3237 8.55886L14.3347 8.57171C14.4078 8.57123 14.4778 8.54524 14.5295 8.49935C14.5813 8.45347 14.6106 8.39136 14.6111 8.32647C14.6359 7.35466 14.2954 6.53943 13.6275 5.88625C12.9562 5.23309 12.0195 4.86675 10.8236 4.79397H10.7843ZM11.2372 6.11254C10.8601 6.10276 10.8457 6.60304 11.2192 6.61282C12.1277 6.65441 12.5688 7.06171 12.6267 7.89958C12.628 7.96318 12.6572 8.02382 12.7083 8.06851C12.7593 8.1132 12.828 8.13841 12.8997 8.13871H12.9107C12.9475 8.13731 12.9837 8.12941 13.0171 8.11546C13.0505 8.10153 13.0804 8.08183 13.1051 8.05751C13.1298 8.03321 13.1488 8.00477 13.161 7.97388C13.1732 7.94297 13.1783 7.91024 13.1761 7.87756C13.1113 6.78528 12.4399 6.17003 11.2482 6.11315L11.2372 6.11254Z" fill="black"></path>
    </g>
    <defs>
      <clipPath id="clip0_1_236">
        <rect width="22.0535" height="19.5682" fill="white"></rect>
      </clipPath>
    </defs>
  </symbol>
  <symbol fill="none" xmlns="http://www.w3.org/2000/svg" viewBox="0 0 23 20" id="whatsapp">
    <g clip-path="url(#clip0_1_238)">
      <path fill-rule="evenodd" clip-rule="evenodd" d="M16.1613 11.7262C15.8874 11.6048 14.5449 11.0194 14.295 10.9378C14.045 10.8571 13.8631 10.8171 13.6802 11.0601C13.4983 11.3014 12.9754 11.8477 12.8165 12.0092C12.6566 12.1714 12.4976 12.191 12.2247 12.0703C11.9518 11.948 11.0715 11.6928 10.0285 10.8677C9.21717 10.2252 8.66859 9.43188 8.50961 9.18891C8.35065 8.94676 8.49216 8.81548 8.62907 8.69481C8.7522 8.58638 8.90198 8.41189 9.0389 8.27083C9.17581 8.12896 9.22084 8.02786 9.3118 7.86562C9.40369 7.70418 9.35775 7.56312 9.28884 7.44164C9.22084 7.32015 8.67502 6.12731 8.44713 5.64219C8.22568 5.1701 8.00055 5.23452 7.83331 5.22636C7.67342 5.21984 7.49148 5.21821 7.30954 5.21821C7.12759 5.21821 6.83171 5.27855 6.58177 5.52152C6.33092 5.76367 5.62612 6.3499 5.62612 7.54274C5.62612 8.73477 6.60382 9.88684 6.74075 10.0491C6.87765 10.2105 8.66583 12.6582 11.4051 13.7076C12.0575 13.957 12.5656 14.1062 12.9617 14.2171C13.6159 14.4022 14.2114 14.3761 14.6818 14.3133C15.2057 14.244 16.2973 13.7271 16.5252 13.1612C16.7521 12.5954 16.7521 12.1103 16.6841 12.0092C16.6161 11.9081 16.4352 11.8477 16.1613 11.7262ZM11.179 17.7622H11.1753C9.54837 17.7625 7.95126 17.3744 6.55145 16.6386L6.22065 16.4642L2.78214 17.2648L3.70012 14.2904L3.48417 13.9856C2.5746 12.7009 2.09324 11.214 2.09573 9.69687C2.09756 5.25326 6.17194 1.63805 11.1827 1.63805C13.6086 1.63805 15.8893 2.47786 17.6039 4.0009C18.4496 4.74823 19.12 5.63694 19.5761 6.61561C20.0323 7.5943 20.2652 8.64352 20.2614 9.70257C20.2596 14.1462 16.1851 17.7622 11.179 17.7622ZM18.9088 2.84394C17.8963 1.93967 16.6916 1.22267 15.3646 0.734492C14.0376 0.246318 12.6146 -0.00332352 11.1781 3.34106e-05C5.15564 3.34106e-05 0.252419 4.34987 0.250581 9.69605C0.249662 11.405 0.752298 13.0732 1.70886 14.5433L0.158691 19.5682L5.95141 18.2196C7.55384 18.9942 9.34958 19.4002 11.1744 19.4002H11.179C17.2015 19.4002 22.1046 15.0503 22.1065 9.70339C22.1109 8.42923 21.8306 7.16695 21.2817 5.98955C20.7329 4.81214 19.9263 3.74299 18.9088 2.84394Z" fill="black"></path>
    </g>
    <defs>
      <clipPath id="clip0_1_238">
        <rect width="22.0535" height="19.5682" fill="white" transform="translate(0.158691)"></rect>
      </clipPath>
    </defs>
  </symbol>
  <symbol xmlns="http://www.w3.org/2000/svg" version="1.1" xmlns:xlink="http://www.w3.org/1999/xlink" x="0" y="0" xml:space="preserve" viewBox="0 0 512 512" id="experiance">
    <g>
      <path fill-rule="evenodd" d="m175.471 392.682-28.979-28.977-75.472-75.474c-11.631-11.633-11.631-30.608 0-42.242l7.859-7.856c11.631-11.633 30.607-11.633 42.24 0l54.352 54.35c11.633 11.633 30.609 11.634 42.242 0l173.166-173.165c11.633-11.634 30.609-11.634 42.242 0l7.857 7.856c11.633 11.633 11.635 30.609 0 42.242L246.691 363.705l-28.979 28.977c-11.632 11.632-30.608 11.632-42.241 0z" clip-rule="evenodd" fill="#000000" opacity="1" data-original="#000000"></path>
    </g>
  </symbol>
  <symbol version="1.0" xmlns="http://www.w3.org/2000/svg" preserveAspectRatio="xMidYMid meet" viewBox="0 0 1280.000000 640.000000" id="garanty">
    <g transform="translate(0.000000,640.000000) scale(0.100000,-0.100000)" fill="#000000" stroke="none">
      <path d="M9638 6075 c-772 -93 -1504 -467 -2317 -1184 -198 -174 -334 -303
-657 -624 -230 -229 -264 -258 -281 -249 -11 6 -100 93 -199 194 -1144 1171
-1886 1664 -2745 1822 -560 103 -1141 38 -1669 -186 -885 -376 -1533 -1167
-1714 -2093 -41 -207 -51 -318 -51 -565 0 -392 54 -719 176 -1065 338 -964
1145 -1627 2164 -1779 634 -95 1337 26 1957 335 243 121 448 250 703 441 321
239 556 450 1061 950 176 175 327 318 334 318 8 0 77 -66 154 -146 172 -179
592 -584 770 -743 820 -731 1442 -1055 2226 -1163 58 -8 194 -12 350 -12 213
0 279 4 400 23 650 100 1205 379 1659 832 457 457 742 1045 823 1699 19 155
16 563 -6 720 -78 561 -275 1067 -568 1457 -95 128 -294 332 -425 435 -364
290 -837 486 -1378 570 -172 26 -594 34 -767 13z m-6331 -1199 c336 -71 676
-233 1010 -481 119 -88 297 -234 413 -339 146 -133 880 -850 880 -860 0 -16
-640 -649 -795 -788 -492 -438 -947 -715 -1375 -839 -202 -58 -321 -74 -565
-74 -190 0 -235 3 -334 23 -590 119 -1022 504 -1210 1077 -160 489 -130 953
90 1385 252 496 706 824 1266 915 63 10 146 13 293 10 172 -3 225 -8 327 -29z
m6863 19 c327 -46 605 -171 841 -378 439 -384 649 -1063 517 -1677 -134 -625
-615 -1131 -1229 -1295 -148 -39 -279 -55 -454 -55 -310 0 -559 62 -870 215
-327 160 -642 391 -1037 761 -248 232 -743 719 -746 734 -3 16 466 495 668
681 682 630 1221 933 1800 1014 130 18 382 18 510 0z"></path>
    </g>
  </symbol>
  <symbol xmlns="http://www.w3.org/2000/svg" version="1.1" xmlns:xlink="http://www.w3.org/1999/xlink" x="0" y="0" xml:space="preserve" viewBox="0 0 64 64" id="secure">
    <g>
      <path d="M31.5 54.9c.2 0 .4.1.5.1s.4 0 .5-.1C33.3 54.7 52 49.4 52 37V14c0-.8-.5-1.5-1.2-1.8-12-5.3-25.7-5.3-37.6 0-.7.3-1.2 1-1.2 1.8v23c0 12.4 18.7 17.7 19.5 17.9zm-8.9-26.4c.8-.8 2-.8 2.8 0l4.7 4.7 8.5-8.5c.8-.8 2-.8 2.8 0s.8 2 0 2.8l-9.9 9.9c-.4.4-.9.6-1.4.6s-1-.2-1.4-.6l-6.1-6.1c-.8-.8-.8-2.1 0-2.8z" fill="#000000" opacity="1" data-original="#000000"></path>
    </g>
  </symbol>
</svg>